<svg xmlns="http://www.w3.org/2000/svg" xmlns:xlink="http://www.w3.org/1999/xlink" width="1360" height="1760"><g transform="translate(0 0)"><path d="M0 0h1360v1760H0z" fill="#fff"/><path d="M340 145c0-2.76 2.24-5 5-5h150c2.76 0 5 2.24 5 5v110c0 2.76-2.24 5-5 5H345c-2.76 0-5-2.24-5-5z" stroke="#666" stroke-width="2" fill="#3aa6dd"/><use xlink:href="#a" transform="matrix(1,0,0,1,340,140) translate(27.703703703703702 62.97222222222222)"/><path d="M420 260v1460" fill="none"/><path d="M420 260v9.93m0 9.93v19.87m0 9.93v19.86m0 9.94v19.86m0 9.93v19.87m0 9.93v19.86m0 9.94v19.87m0 9.94v19.86m0 9.94v19.86m0 9.93v19.87m0 9.93v19.86m0 9.92v19.87m0 9.92v19.86m0 9.93v19.88m0 9.93v19.87m0 9.94v19.87m0 9.93v19.87m0 9.93v19.86m0 9.93v19.86m0 9.93v19.85m0 9.94v19.85m0 9.93v19.87m0 9.93v19.86m0 9.93v19.87m0 9.93v19.86m0 9.94v19.86m0 9.93v19.87m0 9.93v19.86m0 9.93v19.87m0 9.93V1134m0 9.95v19.86m0 9.94v19.87m0 9.94v19.86m0 9.93v19.87m0 9.93V1283m0 9.93v19.86m0 9.92v19.87m0 9.92v19.86m0 9.93v19.88m0 9.93v19.87m0 9.93v19.87m0 9.93v19.86m0 9.94v19.86m0 9.93v19.86m0 9.93v19.85m0 9.93v19.87m0 9.93v19.86m0 9.94v19.86m0 9.93v19.87m0 9.93v9.93" stroke="#999" stroke-width="2" fill="none"/><path d="M400 305c0-2.76 2.24-5 5-5h30c2.76 0 5 2.24 5 5v1390c0 2.76-2.24 5-5 5h-30c-2.76 0-5-2.24-5-5z" stroke="#666" stroke-width="2" fill="#f2f2f2"/><path d="M901 145c0-2.76 2.24-5 5-5h150c2.76 0 5 2.24 5 5v110c0 2.76-2.24 5-5 5H906c-2.76 0-5-2.24-5-5z" stroke="#666" stroke-width="2" fill="#99d2f2"/><use xlink:href="#b" transform="matrix(1,0,0,1,901,140) translate(46.666666666666664 62.97222222222222)"/><path d="M981 260v1460" fill="none"/><path d="M981 260v9.93m0 9.93v19.87m0 9.93v19.86m0 9.94v19.86m0 9.93v19.87m0 9.93v19.86m0 9.94v19.87m0 9.94v19.86m0 9.94v19.86m0 9.93v19.87m0 9.93v19.86m0 9.92v19.87m0 9.92v19.86m0 9.93v19.88m0 9.93v19.87m0 9.94v19.87m0 9.93v19.87m0 9.93v19.86m0 9.93v19.86m0 9.93v19.85m0 9.94v19.85m0 9.93v19.87m0 9.93v19.86m0 9.93v19.87m0 9.93v19.86m0 9.94v19.86m0 9.93v19.87m0 9.93v19.86m0 9.93v19.87m0 9.93V1134m0 9.95v19.86m0 9.94v19.87m0 9.94v19.86m0 9.93v19.87m0 9.93V1283m0 9.93v19.86m0 9.92v19.87m0 9.92v19.86m0 9.93v19.88m0 9.93v19.87m0 9.93v19.87m0 9.93v19.86m0 9.94v19.86m0 9.93v19.86m0 9.93v19.85m0 9.93v19.87m0 9.93v19.86m0 9.94v19.86m0 9.93v19.87m0 9.93v9.93" stroke="#999" stroke-width="2" fill="none"/><path d="M960 385c0-2.76 2.24-5 5-5h30c2.76 0 5 2.24 5 5v50c0 2.76-2.24 5-5 5h-30c-2.76 0-5-2.24-5-5z" stroke="#666" stroke-width="2" fill="#f2f2f2"/><path d="M440 382.05h520.96" stroke="#999" stroke-width="2" fill="none"/><path d="M960.96 382.05l-14.26 4.63v-9.27z" fill="#999"/><path d="M961.96 381.32l-1 .73-.38 1.17-14.88 4.84v-12.02zm-14.26 4l10.03-3.27-10.03-3.26z" fill="#999"/><use xlink:href="#c" transform="matrix(1,0,0,1,631.907354980144,356.44706494043197) translate(0 14.4)"/><path d="M32 37c0-2.76 2.24-5 5-5h838c2.76 0 5 2.24 5 5v38c0 2.76-2.24 5-5 5H37c-2.76 0-5-2.24-5-5z" fill="none"/><use xlink:href="#d" transform="matrix(1,0,0,1,32,32) translate(0 31.11111111111111)"/><use xlink:href="#e" transform="matrix(1,0,0,1,32,32) translate(106.37037037037037 31.11111111111111)"/><use xlink:href="#f" transform="matrix(1,0,0,1,32,32) translate(128 31.11111111111111)"/><use xlink:href="#g" transform="matrix(1,0,0,1,32,32) translate(228.44444444444446 31.11111111111111)"/><path d="M31.33 80h1247.24M959.3 436.98H440" stroke="#999" stroke-width="2" fill="none"/><path d="M960.25 436.58l1.03 1.4h-1.97v-2h.86z" fill="#999"/><path d="M454.27 441.62L440 436.98l14.27-4.63z" fill="#fff"/><path d="M455.27 443L440 438.02v-2.1l15.27-4.96zm-12.03-6.02l10.03 3.26v-6.52z" fill="#999"/><use xlink:href="#h" transform="matrix(1,0,0,1,641.7112219682873,411.38185442706407) translate(0 14.4)"/><path d="M120 505c0-2.76 2.24-5 5-5h90c2.76 0 5 2.24 5 5v10c0 2.76-1.58 6.58-3.54 8.54l-2.92 2.92c-1.96 1.96-5.78 3.54-8.54 3.54h-80c-2.76 0-5-2.24-5-5z" fill="#fff"/><path d="M120 505c0-2.76 2.24-5 5-5h1070c2.76 0 5 2.24 5 5v1110c0 2.76-2.24 5-5 5H125c-2.76 0-5-2.24-5-5z" stroke="#666" stroke-width="2" fill="none"/><path d="M220 500v20l-10 10h-90" stroke="#666" stroke-width="2" fill="#fff"/><path d="M120 932.28h20m15 0h20m15 0h20m15 0h20m15 0h20m15 0h20m15 0h20m15 0h20m15 0h20m15 0h20m15 0h20m15 0h20m15 0h20m15 0h20m15 0h20m15 0h20m15 0h20m15 0h20m15 0h20m15 0h20m15 0h20m15 0h20m15 0h20m15 0h20m15 0h20m15 0h20m15 0h20m15 0h20m15 0h20m15 0h20m15 0h20" stroke="#666" stroke-width="2" fill="none"/><use xlink:href="#i" transform="matrix(1,0,0,1,128,500) translate(-1.4249999999999972 18.6)"/><use xlink:href="#j" transform="matrix(1,0,0,1,132,538) translate(6.650000000000006 18.6)"/><use xlink:href="#k" transform="matrix(1,0,0,1,132,538) translate(45.650000000000006 18.6)"/><use xlink:href="#l" transform="matrix(1,0,0,1,132,538) translate(71.65 18.6)"/><use xlink:href="#m" transform="matrix(1,0,0,1,132,940.280701754386) translate(17.525 18.6)"/><path d="M200 585c0-2.76 2.24-5 5-5h90c2.76 0 5 2.24 5 5v10c0 2.76-1.58 6.58-3.54 8.54l-2.92 2.92c-1.96 1.96-5.78 3.54-8.54 3.54h-80c-2.76 0-5-2.24-5-5z" fill="#fff"/><path d="M200 585c0-2.76 2.24-5 5-5h930c2.76 0 5 2.24 5 5v110c0 2.76-2.24 5-5 5H205c-2.76 0-5-2.24-5-5z" stroke="#666" stroke-width="2" fill="none"/><path d="M300 580v20l-10 10h-90" stroke="#666" stroke-width="2" fill="#fff"/><use xlink:href="#n" transform="matrix(1,0,0,1,208,580) translate(21 18.6)"/><use xlink:href="#o" transform="matrix(1,0,0,1,212,618) translate(6.600000000000001 18.6)"/><use xlink:href="#p" transform="matrix(1,0,0,1,212,618) translate(32.55 18.6)"/><use xlink:href="#q" transform="matrix(1,0,0,1,212,618) translate(41.5 18.6)"/><use xlink:href="#r" transform="matrix(1,0,0,1,212,618) translate(60.449999999999996 18.6)"/><path d="M420 625c0-2.76 2.24-5 5-5h30c2.76 0 5 2.24 5 5v30c0 2.76-2.24 5-5 5h-30c-2.76 0-5-2.24-5-5z" stroke="#666" stroke-width="2" fill="#fff"/><path d="M440 604.92L455.08 619" stroke="#999" stroke-width="2" fill="none"/><path d="M440.68 604.2l-.68.72v-1.37zM455.08 619l-13.6-6.35 6.34-6.77z" fill="#999"/><path d="M457.17 620.7L455 620h-.14l-15.04-7.02 8.2-8.8zm-14-8.37l9.54 4.46-5.1-9.24z" fill="#999"/><use xlink:href="#s" transform="matrix(1,0,0,1,450.2215905064731,592.8604075487757) translate(0 14.4)"/><path d="M459.9 658.57l-19.9 18.1" stroke="#999" stroke-width="2" fill="none"/><path d="M462.78 657.3l-2.22 2-1.35-1.47 2.23-2.02z" fill="#999"/><path d="M453.67 670.5L440 676.66l7.43-13.03z" fill="#fff"/><path d="M455.34 670.84L440 677.76v-3.1l7.24-12.7zm-12.95 3.65l9.6-4.35-4.38-4.82z" fill="#999"/><use xlink:href="#t" transform="matrix(1,0,0,1,452.87319709382064,665.6179853618889) translate(0 14.4)"/><path d="M440 740h522.26c.22 0 .4.18.4.4v.4" stroke="#999" stroke-width="2" fill="none"/><path d="M962.66 740.8l-14.5 3.82.52-9.25z" fill="#999"/><path d="M963.83 740.2l-.4.05-2.47 1.8-.08.26-13.8 3.64.68-12zm-14.6 3.1l10.2-2.68-9.83-3.82z" fill="#999"/><use xlink:href="#u" transform="matrix(1,0,0,1,656.6523104086878,714.4000000000005) translate(0 14.4)"/><path d="M960 745c0-2.76 2.24-5 5-5h30c2.76 0 5 2.24 5 5v50c0 2.76-2.24 5-5 5h-30c-2.76 0-5-2.24-5-5z" stroke="#666" stroke-width="2" fill="#f2f2f2"/><path d="M960.5 798.62H443.33" stroke="#999" stroke-width="2" fill="none"/><path d="M962.05 799.04l1.45.47v.12h-3v-2h.5z" fill="#999"/><path d="M443.33 798.62l14.26-4.64v9.27z" stroke="#999" stroke-width="2" fill="#fff"/><use xlink:href="#h" transform="matrix(1,0,0,1,644.1329724500413,773.0162923166192) translate(0 14.4)"/><path d="M960 865c0-2.76 2.24-5 5-5h30c2.76 0 5 2.24 5 5v30c0 2.76-2.24 5-5 5h-30c-2.76 0-5-2.24-5-5z" stroke="#666" stroke-width="2" fill="#f2f2f2"/><path d="M440 865h520" stroke="#999" stroke-width="2" fill="none"/><path d="M960 865l-14.27 4.64v-9.28z" fill="#999"/><path d="M960.3 864.05l-.3.95v1.05L944.73 871v-12zm-13.57 4.2l10.03-3.25-10.03-3.26z" fill="#999"/><use xlink:href="#v" transform="matrix(1,0,0,1,636.6,839.4000000000001) translate(0 14.4)"/><path d="M200 1005c0-2.76 2.24-5 5-5h90c2.76 0 5 2.24 5 5v10c0 2.76-1.58 6.58-3.54 8.54l-2.92 2.92c-1.96 1.96-5.78 3.54-8.54 3.54h-80c-2.76 0-5-2.24-5-5z" fill="#fff"/><path d="M200 1005c0-2.76 2.24-5 5-5h930c2.76 0 5 2.24 5 5v130c0 2.76-2.24 5-5 5H205c-2.76 0-5-2.24-5-5z" stroke="#666" stroke-width="2" fill="none"/><path d="M300 1000v20l-10 10h-90" stroke="#666" stroke-width="2" fill="#fff"/><use xlink:href="#i" transform="matrix(1,0,0,1,208,1000) translate(-1.4249999999999972 18.6)"/><use xlink:href="#w" transform="matrix(1,0,0,1,212,1038) translate(4.424999999999997 18.6)"/><use xlink:href="#x" transform="matrix(1,0,0,1,212,1038) translate(93.325 18.6)"/><use xlink:href="#y" transform="matrix(1,0,0,1,212,1038) translate(119.325 18.6)"/><path d="M960 1075c0-2.76 2.24-5 5-5h30c2.76 0 5 2.24 5 5v30c0 2.76-2.24 5-5 5h-30c-2.76 0-5-2.24-5-5z" stroke="#666" stroke-width="2" fill="#f2f2f2"/><path d="M440 1070.52h521.36" stroke="#999" stroke-width="2" fill="none"/><path d="M961.36 1070.52l-14.27 4.64v-9.27z" fill="#999"/><path d="M963.65 1070.22l-.23.03-1.6 1.18-15.73 5.1v-12.02zm-15.56 3.56l10.02-3.26-10.03-3.26z" fill="#999"/><use xlink:href="#z" transform="matrix(1,0,0,1,634.8528027923824,1044.9235748536696) translate(0 14.4)"/><path d="M420 1185c0-2.76 2.24-5 5-5h30c2.76 0 5 2.24 5 5v30c0 2.76-2.24 5-5 5h-30c-2.76 0-5-2.24-5-5z" stroke="#666" stroke-width="2" fill="#fff"/><path d="M440 1163.33l16.88 16.23" stroke="#999" stroke-width="2" fill="none"/><path d="M440.7 1162.6l-.7.73v-1.38zM456.88 1179.56l-13.5-6.55 6.43-6.67z" fill="#999"/><path d="M459.2 1181.8l-1-.48-.25-.36-1.45-.47-14.8-7.2 8.34-8.65zm-14.14-9.08l9.48 4.6-4.97-9.3z" fill="#999"/><use xlink:href="#A" transform="matrix(1,0,0,1,451.2355642759132,1153.2994466044809) translate(0 14.4)"/><path d="M457.53 1220.3L440 1242" stroke="#999" stroke-width="2" fill="none"/><path d="M460.2 1218.6l-1.9 2.32-1.55-1.26.08-.1 2.2-1.6.08-.24z" fill="#999"/><path d="M452.57 1233.8L440 1242l5.36-14z" fill="#fff"/><path d="M454.27 1233.9l-14.27 9.3v-4l4.9-12.85zm-12.24 5.58l8.84-5.75-5.07-4.1z" fill="#999"/><use xlink:href="#B" transform="matrix(1,0,0,1,453.64021740427273,1225.2751736874645) translate(0 14.4)"/><use xlink:href="#C" transform="matrix(1,0,0,1,453.64021740427273,1225.2751736874645) translate(83.95 14.4)"/><path d="M440 1303.83l522.28.3" stroke="#999" stroke-width="2" fill="none"/><path d="M440 1302.83v1-1zM962.28 1304.14l-14.27 4.62.02-9.27z" fill="#999"/><path d="M962.6 1303.2l-.6 1.8v.28l-15 4.86.02-12.03zm-13.6 4.2l10.05-3.27-10.03-3.26z" fill="#999"/><use xlink:href="#D" transform="matrix(1,0,0,1,531.6496770543637,1278.4055171367838) translate(0 14.4)"/><use xlink:href="#E" transform="matrix(1,0,0,1,531.6496770543637,1278.4055171367838) translate(266.15 14.4)"/><path d="M962 1305c0-2.76 2.24-5 5-5h30c2.76 0 5 2.24 5 5v50c0 2.76-2.24 5-5 5h-30c-2.76 0-5-2.24-5-5z" stroke="#666" stroke-width="2" fill="#f2f2f2"/><path d="M962.72 1358.92H440" stroke="#999" stroke-width="2" fill="none"/><path d="M964.05 1359.04l1.67.54v.34h-3v-2h.5z" fill="#999"/><path d="M454.27 1363.55l-14.27-4.63 14.27-4.64z" fill="#fff"/><path d="M455.27 1364.93l-15.27-4.96v-2.1l15.27-4.96zm-12.03-6l10.03 3.25v-6.52z" fill="#999"/><use xlink:href="#h" transform="matrix(1,0,0,1,643.1586132907349,1333.3188394937908) translate(0 14.4)"/><path d="M200 1429.67c0-2.76 2.24-5 5-5h90c2.76 0 5 2.24 5 5v10c0 2.76-1.58 6.58-3.54 8.53l-2.92 2.93c-1.96 1.95-5.78 3.54-8.54 3.54h-80c-2.76 0-5-2.24-5-5z" fill="#fff"/><path d="M200 1429.67c0-2.76 2.24-5 5-5h910c2.76 0 5 2.24 5 5v130c0 2.76-2.24 5-5 5H205c-2.76 0-5-2.24-5-5z" stroke="#666" stroke-width="2" fill="none"/><path d="M300 1424.67v20l-10 10h-90" stroke="#666" stroke-width="2" fill="#fff"/><use xlink:href="#i" transform="matrix(1,0,0,1,208,1424.6666666666665) translate(-1.4249999999999972 18.6)"/><g><use xlink:href="#w" transform="matrix(1,0,0,1,212,1462.6666666666665) translate(4.424999999999997 18.6)"/><use xlink:href="#x" transform="matrix(1,0,0,1,212,1462.6666666666665) translate(93.325 18.6)"/><use xlink:href="#y" transform="matrix(1,0,0,1,212,1462.6666666666665) translate(119.325 18.6)"/></g><path d="M962 1499.67c0-2.76 2.24-5 5-5h30c2.76 0 5 2.24 5 5v30c0 2.76-2.24 5-5 5h-30c-2.76 0-5-2.24-5-5z" stroke="#666" stroke-width="2" fill="#f2f2f2"/><path d="M440 1495.2h523.36" stroke="#999" stroke-width="2" fill="none"/><path d="M963.36 1495.2l-14.27 4.63v-9.28z" fill="#999"/><path d="M965.65 1494.88l-.23.04-1.6 1.17-15.73 5.1v-12.02zm-15.56 3.57l10.02-3.26-10.03-3.27z" fill="#999"/><g><use xlink:href="#z" transform="matrix(1,0,0,1,635.8528027923826,1469.5902415203361) translate(0 14.4)"/></g><path d="M40 325c0-2.76 2.24-5 5-5h90c2.76 0 5 2.24 5 5v10c0 2.76-1.58 6.58-3.54 8.54l-2.92 2.92c-1.96 1.96-5.78 3.54-8.54 3.54H45c-2.76 0-5-2.24-5-5z" fill="#fff"/><path d="M40 325c0-2.76 2.24-5 5-5h1230c2.76 0 5 2.24 5 5v1350c0 2.76-2.24 5-5 5H45c-2.76 0-5-2.24-5-5z" stroke="#666" stroke-width="2" fill="none"/><path d="M140 320v20l-10 10H40" stroke="#666" stroke-width="2" fill="#fff"/><g><use xlink:href="#n" transform="matrix(1,0,0,1,48,320.0000000000001) translate(21 18.6)"/></g><g><use xlink:href="#F" transform="matrix(1,0,0,1,52,358.0000000000001) translate(6.925000000000011 18.6)"/><use xlink:href="#G" transform="matrix(1,0,0,1,52,358.0000000000001) translate(52.77500000000001 18.6)"/><use xlink:href="#H" transform="matrix(1,0,0,1,52,358.0000000000001) translate(91.775 18.6)"/><use xlink:href="#I" transform="matrix(1,0,0,1,52,358.0000000000001) translate(112.275 18.6)"/></g><defs><path fill="#333" d="M25 0v-261h50V0H25" id="J"/><path fill="#333" d="M137-138c1-29-70-34-71-4 15 46 118 7 119 86 1 83-164 76-172 9l43-7c4 19 20 25 44 25 33 8 57-30 24-41C81-84 22-81 20-136c-2-80 154-74 161-7" id="K"/><path fill="#333" d="M115-3C79 11 28 4 28-45v-112H4v-33h27l15-45h31v45h36v33H77v99c-1 23 16 31 38 25v30" id="L"/><path fill="#333" d="M220-157c-53 9-28 100-34 157h-49v-107c1-27-5-49-29-50C55-147 81-57 75 0H25l-1-190h47c2 12-1 28 3 38 10-53 101-56 108 0 13-22 24-43 59-42 82 1 51 116 57 194h-49v-107c-1-25-5-48-29-50" id="M"/><path fill="#333" d="M-4 44V30h207v14H-4" id="N"/><path fill="#333" d="M231 0h-52l-39-155L100 0H48L-1-190h46L77-45c9-52 24-97 36-145h53l37 145 32-145h46" id="O"/><path fill="#333" d="M110-194c64 0 96 36 96 99 0 64-35 99-97 99-61 0-95-36-95-99 0-62 34-99 96-99zm-1 164c35 0 45-28 45-65 0-40-10-65-43-65-34 0-45 26-45 65 0 36 10 65 43 65" id="P"/><path fill="#333" d="M135-150c-39-12-60 13-60 57V0H25l-1-190h47c2 13-1 29 3 40 6-28 27-53 61-41v41" id="Q"/><path fill="#333" d="M147 0L96-86 75-71V0H25v-261h50v150l67-79h53l-66 74L201 0h-54" id="R"/><path fill="#333" d="M185-48c-13 30-37 53-82 52C43 2 14-33 14-96s30-98 90-98c62 0 83 45 84 108H66c0 31 8 55 39 56 18 0 30-7 34-22zm-45-69c5-46-57-63-70-21-2 6-4 13-4 21h74" id="S"/><g id="a"><use transform="matrix(0.04938271604938272,0,0,0.04938271604938272,0,0)" xlink:href="#J"/><use transform="matrix(0.04938271604938272,0,0,0.04938271604938272,4.938271604938272,0)" xlink:href="#K"/><use transform="matrix(0.04938271604938272,0,0,0.04938271604938272,14.814814814814817,0)" xlink:href="#L"/><use transform="matrix(0.04938271604938272,0,0,0.04938271604938272,20.69135802469136,0)" xlink:href="#M"/><use transform="matrix(0.04938271604938272,0,0,0.04938271604938272,36.49382716049383,0)" xlink:href="#N"/><use transform="matrix(0.04938271604938272,0,0,0.04938271604938272,46.370370370370374,0)" xlink:href="#O"/><use transform="matrix(0.04938271604938272,0,0,0.04938271604938272,60.19753086419754,0)" xlink:href="#P"/><use transform="matrix(0.04938271604938272,0,0,0.04938271604938272,71.01234567901234,0)" xlink:href="#Q"/><use transform="matrix(0.04938271604938272,0,0,0.04938271604938272,77.92592592592592,0)" xlink:href="#R"/><use transform="matrix(0.04938271604938272,0,0,0.04938271604938272,87.80246913580247,0)" xlink:href="#S"/><use transform="matrix(0.04938271604938272,0,0,0.04938271604938272,97.67901234567901,0)" xlink:href="#Q"/></g><path fill="#333" d="M35-132v-50h50v50H35zM35 0v-49h50V0H35" id="T"/><path fill="#333" d="M275 0h-61l-44-196L126 0H64L0-248h53L97-49l45-199h58l43 199 44-199h52" id="U"/><g id="b"><use transform="matrix(0.04938271604938272,0,0,0.04938271604938272,0,0)" xlink:href="#T"/><use transform="matrix(0.04938271604938272,0,0,0.04938271604938272,5.8765432098765435,0)" xlink:href="#U"/><use transform="matrix(0.04938271604938272,0,0,0.04938271604938272,22.271604938271604,0)" xlink:href="#P"/><use transform="matrix(0.04938271604938272,0,0,0.04938271604938272,33.08641975308642,0)" xlink:href="#Q"/><use transform="matrix(0.04938271604938272,0,0,0.04938271604938272,40,0)" xlink:href="#R"/><use transform="matrix(0.04938271604938272,0,0,0.04938271604938272,49.876543209876544,0)" xlink:href="#S"/><use transform="matrix(0.04938271604938272,0,0,0.04938271604938272,59.75308641975309,0)" xlink:href="#Q"/></g><path fill="#333" d="M135-194c87-1 58 113 63 194h-50c-7-57 23-157-34-157-59 0-34 97-39 157H25l-1-190h47c2 12-1 28 3 38 12-26 28-41 61-42" id="V"/><path fill="#333" d="M88-194c31-1 46 15 58 34l-1-101h50l1 261h-48c-2-10 0-23-3-31C134-8 116 4 84 4 32 4 16-41 15-95c0-56 19-97 73-99zm17 164c33 0 40-30 41-66 1-37-9-64-41-64s-38 30-39 65c0 43 13 65 39 65" id="W"/><path fill="#333" d="M84 4C32 4 15-41 15-95c0-55 18-99 73-99 29 0 47 12 58 34l2-30h48l-1 265h-49V-32C136-9 114 4 84 4zm21-34c32 0 41-29 41-66 0-36-9-64-40-64-33 0-39 30-40 65 0 43 13 65 39 65" id="X"/><path fill="#333" d="M67-93c0 74 22 123 53 168H70C40 30 18-18 18-93s22-123 52-168h50c-32 44-53 94-53 168" id="Y"/><path fill="#333" d="M62-158H24l-5-90h48" id="Z"/><path fill="#333" d="M144 0l-44-69L55 0H2l70-98-66-92h53l41 62 40-62h54l-67 91 71 99h-54" id="aa"/><path fill="#333" d="M102-93c0 74-22 123-52 168H0C30 29 54-18 53-93c0-74-22-123-53-168h50c30 45 52 94 52 168" id="ab"/><g id="c"><use transform="matrix(0.05,0,0,0.05,0,0)" xlink:href="#K"/><use transform="matrix(0.05,0,0,0.05,10,0)" xlink:href="#S"/><use transform="matrix(0.05,0,0,0.05,20,0)" xlink:href="#V"/><use transform="matrix(0.05,0,0,0.05,30.950000000000003,0)" xlink:href="#W"/><use transform="matrix(0.05,0,0,0.05,41.900000000000006,0)" xlink:href="#N"/><use transform="matrix(0.05,0,0,0.05,51.900000000000006,0)" xlink:href="#Q"/><use transform="matrix(0.05,0,0,0.05,58.900000000000006,0)" xlink:href="#S"/><use transform="matrix(0.05,0,0,0.05,68.9,0)" xlink:href="#X"/><use transform="matrix(0.05,0,0,0.05,79.85000000000001,0)" xlink:href="#Y"/><use transform="matrix(0.05,0,0,0.05,85.80000000000001,0)" xlink:href="#Z"/><use transform="matrix(0.05,0,0,0.05,90.05000000000001,0)" xlink:href="#V"/><use transform="matrix(0.05,0,0,0.05,101.00000000000001,0)" xlink:href="#S"/><use transform="matrix(0.05,0,0,0.05,111,0)" xlink:href="#aa"/><use transform="matrix(0.05,0,0,0.05,121,0)" xlink:href="#L"/><use transform="matrix(0.05,0,0,0.05,126.95,0)" xlink:href="#Z"/><use transform="matrix(0.05,0,0,0.05,131.20000000000002,0)" xlink:href="#ab"/></g><path fill="#999" d="M24 0v-248h52v208h133V0H24" id="ac"/><path fill="#999" d="M169-182c-1-43-94-46-97-3 18 66 151 10 154 114 3 95-165 93-204 36-6-8-10-19-12-30l50-8c3 46 112 56 116 5-17-69-150-10-154-114-4-87 153-88 188-35 5 8 8 18 10 28" id="ad"/><path fill="#999" d="M136-208V0H84v-208H4v-40h212v40h-80" id="ae"/><path fill="#999" d="M230 0l2-204L168 0h-37L68-204 70 0H24v-248h70l56 185 57-185h69V0h-46" id="af"/><g id="d"><use transform="matrix(0.09876543209876544,0,0,0.09876543209876544,0,0)" xlink:href="#ac"/><use transform="matrix(0.09876543209876544,0,0,0.09876543209876544,21.62962962962963,0)" xlink:href="#ad"/><use transform="matrix(0.09876543209876544,0,0,0.09876543209876544,45.333333333333336,0)" xlink:href="#ae"/><use transform="matrix(0.09876543209876544,0,0,0.09876543209876544,66.96296296296296,0)" xlink:href="#af"/></g><path fill="#999" d="M14-72v-43h91v43H14" id="ag"/><use transform="matrix(0.09876543209876544,0,0,0.09876543209876544,0,0)" xlink:href="#ag" id="e"/><path fill="#999" d="M199 0l-22-63H83L61 0H9l90-248h61L250 0h-51zm-33-102l-36-108c-10 38-24 72-36 108h72" id="ah"/><path fill="#999" d="M24 0v-248h52V0H24" id="ai"/><path fill="#999" d="M175 0L67-191c6 58 2 128 3 191H24v-248h59L193-55c-6-58-2-129-3-193h46V0h-61" id="aj"/><g id="f"><use transform="matrix(0.09876543209876544,0,0,0.09876543209876544,0,0)" xlink:href="#af"/><use transform="matrix(0.09876543209876544,0,0,0.09876543209876544,29.530864197530867,0)" xlink:href="#ah"/><use transform="matrix(0.09876543209876544,0,0,0.09876543209876544,55.111111111111114,0)" xlink:href="#ai"/><use transform="matrix(0.09876543209876544,0,0,0.09876543209876544,64.98765432098766,0)" xlink:href="#aj"/></g><path fill="#999" d="M140-251c80 0 125 45 125 126S219 4 139 4C58 4 15-44 15-125s44-126 125-126zm-1 214c52 0 73-35 73-88 0-50-21-86-72-86-52 0-73 35-73 86s22 88 72 88" id="ak"/><path fill="#999" d="M24-248c93 1 206-16 204 79-1 75-69 88-152 82V0H24v-248zm52 121c47 0 100 7 100-41 0-47-54-39-100-39v80" id="al"/><g id="g"><use transform="matrix(0.09876543209876544,0,0,0.09876543209876544,0,0)" xlink:href="#ac"/><use transform="matrix(0.09876543209876544,0,0,0.09876543209876544,21.62962962962963,0)" xlink:href="#ak"/><use transform="matrix(0.09876543209876544,0,0,0.09876543209876544,49.28395061728395,0)" xlink:href="#ak"/><use transform="matrix(0.09876543209876544,0,0,0.09876543209876544,76.93827160493828,0)" xlink:href="#al"/></g><path fill="#333" d="M135-194c53 0 70 44 70 98 0 56-19 98-73 100-31 1-45-17-59-34 3 33 2 69 2 105H25l-1-265h48c2 10 0 23 3 31 11-24 29-35 60-35zM114-30c33 0 39-31 40-66 0-38-9-64-40-64-56 0-55 130 0 130" id="am"/><g id="h"><use transform="matrix(0.05,0,0,0.05,0,0)" xlink:href="#K"/><use transform="matrix(0.05,0,0,0.05,10,0)" xlink:href="#L"/><use transform="matrix(0.05,0,0,0.05,15.949999999999998,0)" xlink:href="#S"/><use transform="matrix(0.05,0,0,0.05,25.950000000000003,0)" xlink:href="#am"/></g><path fill="#333" d="M205 0l-28-72H64L36 0H1l101-248h38L239 0h-34zm-38-99l-47-123c-12 45-31 82-46 123h93" id="an"/><path fill="#333" d="M24 0v-261h32V0H24" id="ao"/><path fill="#333" d="M59-47c-2 24 18 29 38 22v24C64 9 27 4 27-40v-127H5v-23h24l9-43h21v43h35v23H59v120" id="ap"/><path fill="#333" d="M100-194c63 0 86 42 84 106H49c0 40 14 67 53 68 26 1 43-12 49-29l28 8c-11 28-37 45-77 45C44 4 14-33 15-96c1-61 26-98 85-98zm52 81c6-60-76-77-97-28-3 7-6 17-6 28h103" id="aq"/><path fill="#333" d="M114-163C36-179 61-72 57 0H25l-1-190h30c1 12-1 29 2 39 6-27 23-49 58-41v29" id="ar"/><path fill="#333" d="M117-194c89-4 53 116 60 194h-32v-121c0-31-8-49-39-48C34-167 62-67 57 0H25l-1-190h30c1 10-1 24 2 32 11-22 29-35 61-36" id="as"/><path fill="#333" d="M141-36C126-15 110 5 73 4 37 3 15-17 15-53c-1-64 63-63 125-63 3-35-9-54-41-54-24 1-41 7-42 31l-33-3c5-37 33-52 76-52 45 0 72 20 72 64v82c-1 20 7 32 28 27v20c-31 9-61-2-59-35zM48-53c0 20 12 33 32 33 41-3 63-29 60-74-43 2-92-5-92 41" id="at"/><path fill="#333" d="M24-231v-30h32v30H24zM24 0v-190h32V0H24" id="au"/><path fill="#333" d="M108 0H70L1-190h34L89-25l56-165h34" id="av"/><g id="i"><use transform="matrix(0.05,0,0,0.05,0,0)" xlink:href="#an"/><use transform="matrix(0.05,0,0,0.05,12,0)" xlink:href="#ao"/><use transform="matrix(0.05,0,0,0.05,15.949999999999998,0)" xlink:href="#ap"/><use transform="matrix(0.05,0,0,0.05,20.95,0)" xlink:href="#aq"/><use transform="matrix(0.05,0,0,0.05,30.950000000000003,0)" xlink:href="#ar"/><use transform="matrix(0.05,0,0,0.05,36.9,0)" xlink:href="#as"/><use transform="matrix(0.05,0,0,0.05,46.9,0)" xlink:href="#at"/><use transform="matrix(0.05,0,0,0.05,56.900000000000006,0)" xlink:href="#ap"/><use transform="matrix(0.05,0,0,0.05,61.900000000000006,0)" xlink:href="#au"/><use transform="matrix(0.05,0,0,0.05,65.85,0)" xlink:href="#av"/><use transform="matrix(0.05,0,0,0.05,74.85,0)" xlink:href="#aq"/></g><path fill="#333" d="M135-143c-3-34-86-38-87 0 15 53 115 12 119 90S17 21 10-45l28-5c4 36 97 45 98 0-10-56-113-15-118-90-4-57 82-63 122-42 12 7 21 19 24 35" id="aw"/><path fill="#333" d="M115-194c55 1 70 41 70 98S169 2 115 4C84 4 66-9 55-30l1 105H24l-1-265h31l2 30c10-21 28-34 59-34zm-8 174c40 0 45-34 45-75s-6-73-45-74c-42 0-51 32-51 76 0 43 10 73 51 73" id="ax"/><g id="j"><use transform="matrix(0.05,0,0,0.05,0,0)" xlink:href="#aw"/><use transform="matrix(0.05,0,0,0.05,9,0)" xlink:href="#ap"/><use transform="matrix(0.05,0,0,0.05,14,0)" xlink:href="#aq"/><use transform="matrix(0.05,0,0,0.05,24,0)" xlink:href="#ax"/></g><path fill="#333" d="M18-150v-26h174v26H18zm0 90v-26h174v26H18" id="ay"/><g id="k"><use transform="matrix(0.05,0,0,0.05,0,0)" xlink:href="#ay"/><use transform="matrix(0.05,0,0,0.05,10.5,0)" xlink:href="#ay"/></g><path fill="#333" d="M47-170H22l-4-78h33" id="az"/><g id="l"><use transform="matrix(0.05,0,0,0.05,0,0)" xlink:href="#az"/><use transform="matrix(0.05,0,0,0.05,3.4000000000000004,0)" xlink:href="#ap"/><use transform="matrix(0.05,0,0,0.05,8.4,0)" xlink:href="#ar"/><use transform="matrix(0.05,0,0,0.05,14.350000000000001,0)" xlink:href="#at"/><use transform="matrix(0.05,0,0,0.05,24.35,0)" xlink:href="#au"/><use transform="matrix(0.05,0,0,0.05,28.3,0)" xlink:href="#as"/><use transform="matrix(0.05,0,0,0.05,38.3,0)" xlink:href="#az"/></g><path fill="#333" d="M26 75v-336h71v23H56V52h41v23H26" id="aA"/><path fill="#333" d="M30 0v-248h187v28H63v79h144v27H63v87h162V0H30" id="aB"/><path fill="#333" d="M3 75V52h41v-290H3v-23h71V75H3" id="aC"/><g id="m"><use transform="matrix(0.05,0,0,0.05,0,0)" xlink:href="#aA"/><use transform="matrix(0.05,0,0,0.05,5,0)" xlink:href="#aB"/><use transform="matrix(0.05,0,0,0.05,17,0)" xlink:href="#ao"/><use transform="matrix(0.05,0,0,0.05,20.95,0)" xlink:href="#aw"/><use transform="matrix(0.05,0,0,0.05,29.950000000000003,0)" xlink:href="#aq"/><use transform="matrix(0.05,0,0,0.05,39.95,0)" xlink:href="#aC"/></g><path fill="#333" d="M30 0v-248h33v221h125V0H30" id="aD"/><path fill="#333" d="M100-194c62-1 85 37 85 99 1 63-27 99-86 99S16-35 15-95c0-66 28-99 85-99zM99-20c44 1 53-31 53-75 0-43-8-75-51-75s-53 32-53 75 10 74 51 75" id="aE"/><g id="n"><use transform="matrix(0.05,0,0,0.05,0,0)" xlink:href="#aD"/><use transform="matrix(0.05,0,0,0.05,10,0)" xlink:href="#aE"/><use transform="matrix(0.05,0,0,0.05,20,0)" xlink:href="#aE"/><use transform="matrix(0.05,0,0,0.05,30,0)" xlink:href="#ax"/></g><path fill="#333" d="M101-234c-31-9-42 10-38 44h38v23H63V0H32v-167H5v-23h27c-7-52 17-82 69-68v24" id="aF"/><g id="o"><use transform="matrix(0.05,0,0,0.05,0,0)" xlink:href="#aF"/><use transform="matrix(0.05,0,0,0.05,5,0)" xlink:href="#aE"/><use transform="matrix(0.05,0,0,0.05,15,0)" xlink:href="#ar"/></g><use transform="matrix(0.05,0,0,0.05,0,0)" xlink:href="#au" id="p"/><g id="q"><use transform="matrix(0.05,0,0,0.05,0,0)" xlink:href="#au"/><use transform="matrix(0.05,0,0,0.05,3.95,0)" xlink:href="#as"/></g><path fill="#333" d="M190 0L58-211 59 0H30v-248h39L202-35l-2-213h31V0h-41" id="aG"/><use transform="matrix(0.05,0,0,0.05,0,0)" xlink:href="#aG" id="r"/><path fill="#333" d="M133-34C117-15 103 5 69 4 32 3 11-16 11-54c-1-60 55-63 116-61 1-26-3-47-28-47-18 1-26 9-28 27l-52-2c7-38 36-58 82-57s74 22 75 68l1 82c-1 14 12 18 25 15v27c-30 8-71 5-69-32zm-48 3c29 0 43-24 42-57-32 0-66-3-65 30 0 17 8 27 23 27" id="aH"/><path fill="#333" d="M25-224v-37h50v37H25zM25 0v-190h50V0H25" id="aI"/><g id="s"><use transform="matrix(0.05,0,0,0.05,0,0)" xlink:href="#L"/><use transform="matrix(0.05,0,0,0.05,5.95,0)" xlink:href="#Q"/><use transform="matrix(0.05,0,0,0.05,12.949999999999998,0)" xlink:href="#aH"/><use transform="matrix(0.05,0,0,0.05,22.95,0)" xlink:href="#aI"/><use transform="matrix(0.05,0,0,0.05,27.950000000000003,0)" xlink:href="#V"/><use transform="matrix(0.05,0,0,0.05,38.9,0)" xlink:href="#Y"/><use transform="matrix(0.05,0,0,0.05,44.85,0)" xlink:href="#ab"/></g><path fill="#333" d="M190-63c-7 42-38 67-86 67-59 0-84-38-90-98-12-110 154-137 174-36l-49 2c-2-19-15-32-35-32-30 0-35 28-38 64-6 74 65 87 74 30" id="aJ"/><g id="t"><use transform="matrix(0.05,0,0,0.05,0,0)" xlink:href="#aJ"/><use transform="matrix(0.05,0,0,0.05,10,0)" xlink:href="#P"/><use transform="matrix(0.05,0,0,0.05,20.950000000000003,0)" xlink:href="#K"/><use transform="matrix(0.05,0,0,0.05,30.950000000000003,0)" xlink:href="#L"/></g><path fill="#333" d="M133 41v34c-50 4-88-6-87-53 0-46 9-101-40-98v-34c48 2 40-52 40-98-1-47 37-57 87-53v34c-79-14-6 124-77 134 73 11-4 147 77 134" id="aK"/><path fill="#333" d="M94-36c2 56 4 113-52 111H8V41C85 54 13-83 84-94c-39-5-38-51-36-97 1-27-12-38-40-36v-34c49-4 87 6 86 53s-8 101 41 98v34c-26 1-42 13-41 40" id="aL"/><g id="u"><use transform="matrix(0.05,0,0,0.05,0,0)" xlink:href="#K"/><use transform="matrix(0.05,0,0,0.05,10,0)" xlink:href="#S"/><use transform="matrix(0.05,0,0,0.05,20,0)" xlink:href="#V"/><use transform="matrix(0.05,0,0,0.05,30.950000000000003,0)" xlink:href="#W"/><use transform="matrix(0.05,0,0,0.05,41.900000000000006,0)" xlink:href="#N"/><use transform="matrix(0.05,0,0,0.05,51.900000000000006,0)" xlink:href="#Q"/><use transform="matrix(0.05,0,0,0.05,58.900000000000006,0)" xlink:href="#S"/><use transform="matrix(0.05,0,0,0.05,68.9,0)" xlink:href="#X"/><use transform="matrix(0.05,0,0,0.05,79.85000000000001,0)" xlink:href="#Y"/><use transform="matrix(0.05,0,0,0.05,85.80000000000001,0)" xlink:href="#aK"/><use transform="matrix(0.05,0,0,0.05,92.80000000000001,0)" xlink:href="#Z"/><use transform="matrix(0.05,0,0,0.05,97.05000000000001,0)" xlink:href="#W"/><use transform="matrix(0.05,0,0,0.05,108,0)" xlink:href="#P"/><use transform="matrix(0.05,0,0,0.05,118.95,0)" xlink:href="#V"/><use transform="matrix(0.05,0,0,0.05,129.9,0)" xlink:href="#S"/><use transform="matrix(0.05,0,0,0.05,139.9,0)" xlink:href="#Z"/><use transform="matrix(0.05,0,0,0.05,144.15,0)" xlink:href="#T"/><use transform="matrix(0.05,0,0,0.05,150.1,0)" xlink:href="#aJ"/><use transform="matrix(0.05,0,0,0.05,160.1,0)" xlink:href="#P"/><use transform="matrix(0.05,0,0,0.05,171.04999999999998,0)" xlink:href="#K"/><use transform="matrix(0.05,0,0,0.05,181.04999999999998,0)" xlink:href="#L"/><use transform="matrix(0.05,0,0,0.05,186.99999999999997,0)" xlink:href="#aL"/><use transform="matrix(0.05,0,0,0.05,193.99999999999997,0)" xlink:href="#ab"/></g><path fill="#333" d="M123 10C108 53 80 86 19 72V37c35 8 53-11 59-39L3-190h52l48 148c12-52 28-100 44-148h51" id="aM"/><g id="v"><use transform="matrix(0.05,0,0,0.05,0,0)" xlink:href="#K"/><use transform="matrix(0.05,0,0,0.05,10,0)" xlink:href="#aM"/><use transform="matrix(0.05,0,0,0.05,20,0)" xlink:href="#V"/><use transform="matrix(0.05,0,0,0.05,30.950000000000003,0)" xlink:href="#aJ"/><use transform="matrix(0.05,0,0,0.05,40.95,0)" xlink:href="#N"/><use transform="matrix(0.05,0,0,0.05,50.95,0)" xlink:href="#am"/><use transform="matrix(0.05,0,0,0.05,61.900000000000006,0)" xlink:href="#aH"/><use transform="matrix(0.05,0,0,0.05,71.9,0)" xlink:href="#Q"/><use transform="matrix(0.05,0,0,0.05,78.9,0)" xlink:href="#aH"/><use transform="matrix(0.05,0,0,0.05,88.9,0)" xlink:href="#M"/><use transform="matrix(0.05,0,0,0.05,104.9,0)" xlink:href="#K"/><use transform="matrix(0.05,0,0,0.05,114.9,0)" xlink:href="#Y"/><use transform="matrix(0.05,0,0,0.05,120.85000000000001,0)" xlink:href="#ab"/></g><path fill="#333" d="M85-194c31 0 48 13 60 33l-1-100h32l1 261h-30c-2-10 0-23-3-31C134-8 116 4 85 4 32 4 16-35 15-94c0-66 23-100 70-100zm9 24c-40 0-46 34-46 75 0 40 6 74 45 74 42 0 51-32 51-76 0-42-9-74-50-73" id="aN"/><path fill="#333" d="M-5 72V49h209v23H-5" id="aO"/><path fill="#333" d="M179-190L93 31C79 59 56 82 12 73V49c39 6 53-20 64-50L1-190h34L92-34l54-156h33" id="aP"/><path fill="#333" d="M96-169c-40 0-48 33-48 73s9 75 48 75c24 0 41-14 43-38l32 2c-6 37-31 61-74 61-59 0-76-41-82-99-10-93 101-131 147-64 4 7 5 14 7 22l-32 3c-4-21-16-35-41-35" id="aQ"/><g id="w"><use transform="matrix(0.05,0,0,0.05,0,0)" xlink:href="#av"/><use transform="matrix(0.05,0,0,0.05,9,0)" xlink:href="#at"/><use transform="matrix(0.05,0,0,0.05,19,0)" xlink:href="#ao"/><use transform="matrix(0.05,0,0,0.05,22.95,0)" xlink:href="#au"/><use transform="matrix(0.05,0,0,0.05,26.899999999999995,0)" xlink:href="#aN"/><use transform="matrix(0.05,0,0,0.05,36.9,0)" xlink:href="#aO"/><use transform="matrix(0.05,0,0,0.05,46.9,0)" xlink:href="#aw"/><use transform="matrix(0.05,0,0,0.05,55.900000000000006,0)" xlink:href="#aP"/><use transform="matrix(0.05,0,0,0.05,64.9,0)" xlink:href="#as"/><use transform="matrix(0.05,0,0,0.05,74.9,0)" xlink:href="#aQ"/></g><g id="x"><use transform="matrix(0.05,0,0,0.05,0,0)" xlink:href="#ay"/><use transform="matrix(0.05,0,0,0.05,10.5,0)" xlink:href="#ay"/></g><path fill="#333" d="M127-220V0H93v-220H8v-28h204v28h-85" id="aR"/><path fill="#333" d="M84 4C-5 8 30-112 23-190h32v120c0 31 7 50 39 49 72-2 45-101 50-169h31l1 190h-30c-1-10 1-25-2-33-11 22-28 36-60 37" id="aS"/><g id="y"><use transform="matrix(0.05,0,0,0.05,0,0)" xlink:href="#aR"/><use transform="matrix(0.05,0,0,0.05,10.3,0)" xlink:href="#ar"/><use transform="matrix(0.05,0,0,0.05,16.25,0)" xlink:href="#aS"/><use transform="matrix(0.05,0,0,0.05,26.25,0)" xlink:href="#aq"/></g><g id="z"><use transform="matrix(0.05,0,0,0.05,0,0)" xlink:href="#aJ"/><use transform="matrix(0.05,0,0,0.05,10,0)" xlink:href="#P"/><use transform="matrix(0.05,0,0,0.05,20.950000000000003,0)" xlink:href="#am"/><use transform="matrix(0.05,0,0,0.05,31.900000000000006,0)" xlink:href="#aM"/><use transform="matrix(0.05,0,0,0.05,41.900000000000006,0)" xlink:href="#N"/><use transform="matrix(0.05,0,0,0.05,51.900000000000006,0)" xlink:href="#L"/><use transform="matrix(0.05,0,0,0.05,57.85,0)" xlink:href="#P"/><use transform="matrix(0.05,0,0,0.05,68.80000000000001,0)" xlink:href="#N"/><use transform="matrix(0.05,0,0,0.05,78.80000000000001,0)" xlink:href="#J"/><use transform="matrix(0.05,0,0,0.05,83.80000000000001,0)" xlink:href="#P"/><use transform="matrix(0.05,0,0,0.05,94.75000000000001,0)" xlink:href="#aJ"/><use transform="matrix(0.05,0,0,0.05,104.75,0)" xlink:href="#aH"/><use transform="matrix(0.05,0,0,0.05,114.75,0)" xlink:href="#J"/><use transform="matrix(0.05,0,0,0.05,119.75,0)" xlink:href="#Y"/><use transform="matrix(0.05,0,0,0.05,125.7,0)" xlink:href="#ab"/></g><g id="A"><use transform="matrix(0.05,0,0,0.05,0,0)" xlink:href="#M"/><use transform="matrix(0.05,0,0,0.05,16,0)" xlink:href="#P"/><use transform="matrix(0.05,0,0,0.05,26.950000000000003,0)" xlink:href="#V"/><use transform="matrix(0.05,0,0,0.05,37.900000000000006,0)" xlink:href="#aI"/><use transform="matrix(0.05,0,0,0.05,42.900000000000006,0)" xlink:href="#L"/><use transform="matrix(0.05,0,0,0.05,48.85000000000001,0)" xlink:href="#P"/><use transform="matrix(0.05,0,0,0.05,59.80000000000001,0)" xlink:href="#Q"/><use transform="matrix(0.05,0,0,0.05,66.80000000000001,0)" xlink:href="#Y"/><use transform="matrix(0.05,0,0,0.05,72.75000000000001,0)" xlink:href="#ab"/></g><path fill="#333" d="M128 0H69L1-190h53L99-40l48-150h52" id="aT"/><path fill="#333" d="M76-54c-1 42 2 86-19 110H24C36 42 46 24 48 0H25v-54h51" id="aU"/><g id="B"><use transform="matrix(0.05,0,0,0.05,0,0)" xlink:href="#aT"/><use transform="matrix(0.05,0,0,0.05,10,0)" xlink:href="#aH"/><use transform="matrix(0.05,0,0,0.05,20,0)" xlink:href="#J"/><use transform="matrix(0.05,0,0,0.05,25,0)" xlink:href="#aI"/><use transform="matrix(0.05,0,0,0.05,30,0)" xlink:href="#W"/><use transform="matrix(0.05,0,0,0.05,40.95,0)" xlink:href="#N"/><use transform="matrix(0.05,0,0,0.05,50.95,0)" xlink:href="#S"/><use transform="matrix(0.05,0,0,0.05,60.95,0)" xlink:href="#Q"/><use transform="matrix(0.05,0,0,0.05,67.95,0)" xlink:href="#Q"/><use transform="matrix(0.05,0,0,0.05,73.95,0)" xlink:href="#aU"/></g><g id="C"><use transform="matrix(0.05,0,0,0.05,0,0)" xlink:href="#L"/><use transform="matrix(0.05,0,0,0.05,5.95,0)" xlink:href="#S"/><use transform="matrix(0.05,0,0,0.05,15.949999999999998,0)" xlink:href="#K"/><use transform="matrix(0.05,0,0,0.05,25.950000000000003,0)" xlink:href="#L"/><use transform="matrix(0.05,0,0,0.05,31.899999999999995,0)" xlink:href="#N"/><use transform="matrix(0.05,0,0,0.05,41.9,0)" xlink:href="#S"/><use transform="matrix(0.05,0,0,0.05,51.900000000000006,0)" xlink:href="#Q"/><use transform="matrix(0.05,0,0,0.05,58.900000000000006,0)" xlink:href="#Q"/></g><g id="D"><use transform="matrix(0.05,0,0,0.05,0,0)" xlink:href="#K"/><use transform="matrix(0.05,0,0,0.05,10,0)" xlink:href="#S"/><use transform="matrix(0.05,0,0,0.05,20,0)" xlink:href="#V"/><use transform="matrix(0.05,0,0,0.05,30.950000000000003,0)" xlink:href="#W"/><use transform="matrix(0.05,0,0,0.05,41.900000000000006,0)" xlink:href="#N"/><use transform="matrix(0.05,0,0,0.05,51.900000000000006,0)" xlink:href="#Q"/><use transform="matrix(0.05,0,0,0.05,58.900000000000006,0)" xlink:href="#S"/><use transform="matrix(0.05,0,0,0.05,68.9,0)" xlink:href="#X"/><use transform="matrix(0.05,0,0,0.05,79.85000000000001,0)" xlink:href="#Y"/><use transform="matrix(0.05,0,0,0.05,85.80000000000001,0)" xlink:href="#aK"/><use transform="matrix(0.05,0,0,0.05,92.80000000000001,0)" xlink:href="#Z"/><use transform="matrix(0.05,0,0,0.05,97.05000000000001,0)" xlink:href="#aT"/><use transform="matrix(0.05,0,0,0.05,107.05000000000001,0)" xlink:href="#aH"/><use transform="matrix(0.05,0,0,0.05,117.05000000000001,0)" xlink:href="#J"/><use transform="matrix(0.05,0,0,0.05,122.05000000000001,0)" xlink:href="#aI"/><use transform="matrix(0.05,0,0,0.05,127.05000000000001,0)" xlink:href="#W"/><use transform="matrix(0.05,0,0,0.05,138,0)" xlink:href="#N"/><use transform="matrix(0.05,0,0,0.05,148,0)" xlink:href="#S"/><use transform="matrix(0.05,0,0,0.05,158,0)" xlink:href="#Q"/><use transform="matrix(0.05,0,0,0.05,165,0)" xlink:href="#Q"/><use transform="matrix(0.05,0,0,0.05,172,0)" xlink:href="#Z"/><use transform="matrix(0.05,0,0,0.05,176.25,0)" xlink:href="#T"/><use transform="matrix(0.05,0,0,0.05,182.2,0)" xlink:href="#aT"/><use transform="matrix(0.05,0,0,0.05,192.2,0)" xlink:href="#aH"/><use transform="matrix(0.05,0,0,0.05,202.2,0)" xlink:href="#J"/><use transform="matrix(0.05,0,0,0.05,207.19999999999996,0)" xlink:href="#aI"/><use transform="matrix(0.05,0,0,0.05,212.19999999999996,0)" xlink:href="#W"/><use transform="matrix(0.05,0,0,0.05,223.14999999999998,0)" xlink:href="#N"/><use transform="matrix(0.05,0,0,0.05,233.14999999999998,0)" xlink:href="#S"/><use transform="matrix(0.05,0,0,0.05,243.14999999999998,0)" xlink:href="#Q"/><use transform="matrix(0.05,0,0,0.05,250.14999999999998,0)" xlink:href="#Q"/><use transform="matrix(0.05,0,0,0.05,256.15,0)" xlink:href="#aU"/></g><g id="E"><use transform="matrix(0.05,0,0,0.05,0,0)" xlink:href="#Z"/><use transform="matrix(0.05,0,0,0.05,4.25,0)" xlink:href="#L"/><use transform="matrix(0.05,0,0,0.05,10.2,0)" xlink:href="#S"/><use transform="matrix(0.05,0,0,0.05,20.2,0)" xlink:href="#K"/><use transform="matrix(0.05,0,0,0.05,30.200000000000003,0)" xlink:href="#L"/><use transform="matrix(0.05,0,0,0.05,36.15,0)" xlink:href="#N"/><use transform="matrix(0.05,0,0,0.05,46.15,0)" xlink:href="#S"/><use transform="matrix(0.05,0,0,0.05,56.150000000000006,0)" xlink:href="#Q"/><use transform="matrix(0.05,0,0,0.05,63.150000000000006,0)" xlink:href="#Q"/><use transform="matrix(0.05,0,0,0.05,70.15,0)" xlink:href="#Z"/><use transform="matrix(0.05,0,0,0.05,74.4,0)" xlink:href="#T"/><use transform="matrix(0.05,0,0,0.05,80.35000000000001,0)" xlink:href="#L"/><use transform="matrix(0.05,0,0,0.05,86.30000000000001,0)" xlink:href="#S"/><use transform="matrix(0.05,0,0,0.05,96.30000000000001,0)" xlink:href="#K"/><use transform="matrix(0.05,0,0,0.05,106.30000000000001,0)" xlink:href="#L"/><use transform="matrix(0.05,0,0,0.05,112.25,0)" xlink:href="#N"/><use transform="matrix(0.05,0,0,0.05,122.25,0)" xlink:href="#S"/><use transform="matrix(0.05,0,0,0.05,132.25,0)" xlink:href="#Q"/><use transform="matrix(0.05,0,0,0.05,139.25,0)" xlink:href="#Q"/><use transform="matrix(0.05,0,0,0.05,146.25,0)" xlink:href="#aL"/><use transform="matrix(0.05,0,0,0.05,153.25,0)" xlink:href="#ab"/></g><path fill="#333" d="M206 0h-36l-40-164L89 0H53L-1-190h32L70-26l43-164h34l41 164 42-164h31" id="aV"/><path fill="#333" d="M106-169C34-169 62-67 57 0H25v-261h32l-1 103c12-21 28-36 61-36 89 0 53 116 60 194h-32v-121c2-32-8-49-39-48" id="aW"/><g id="F"><use transform="matrix(0.05,0,0,0.05,0,0)" xlink:href="#aV"/><use transform="matrix(0.05,0,0,0.05,12.950000000000001,0)" xlink:href="#aW"/><use transform="matrix(0.05,0,0,0.05,22.950000000000003,0)" xlink:href="#au"/><use transform="matrix(0.05,0,0,0.05,26.900000000000002,0)" xlink:href="#ao"/><use transform="matrix(0.05,0,0,0.05,30.85,0)" xlink:href="#aq"/></g><g id="G"><use transform="matrix(0.05,0,0,0.05,0,0)" xlink:href="#aw"/><use transform="matrix(0.05,0,0,0.05,9,0)" xlink:href="#ap"/><use transform="matrix(0.05,0,0,0.05,14,0)" xlink:href="#aq"/><use transform="matrix(0.05,0,0,0.05,24,0)" xlink:href="#ax"/></g><path fill="#333" d="M63-70H37l-4-178h34zM33 0v-35h34V0H33" id="aX"/><g id="H"><use transform="matrix(0.05,0,0,0.05,0,0)" xlink:href="#aX"/><use transform="matrix(0.05,0,0,0.05,5,0)" xlink:href="#ay"/></g><g id="I"><use transform="matrix(0.05,0,0,0.05,0,0)" xlink:href="#az"/><use transform="matrix(0.05,0,0,0.05,3.4000000000000004,0)" xlink:href="#aw"/><use transform="matrix(0.05,0,0,0.05,12.4,0)" xlink:href="#ap"/><use transform="matrix(0.05,0,0,0.05,17.4,0)" xlink:href="#aE"/><use transform="matrix(0.05,0,0,0.05,27.399999999999995,0)" xlink:href="#ax"/><use transform="matrix(0.05,0,0,0.05,37.4,0)" xlink:href="#az"/></g></defs></g></svg>