<svg xmlns="http://www.w3.org/2000/svg" xmlns:xlink="http://www.w3.org/1999/xlink" width="1760" height="1360"><g transform="translate(0 0)"><path d="M0 0h1760v1360H0z" fill="#fff"/><path d="M500 145c0-2.76 2.24-5 5-5h150c2.76 0 5 2.24 5 5v110c0 2.76-2.24 5-5 5H505c-2.76 0-5-2.24-5-5z" stroke="#666" stroke-width="2" fill="#99d2f2"/><use xlink:href="#a" transform="matrix(1,0,0,1,500,140) translate(46.666666666666664 62.97222222222222)"/><path d="M580 260v550.15" fill="none"/><path d="M580 260v10.2m0 10.18v20.37m0 10.2v20.37m0 10.18v20.38m0 10.2v20.36m0 10.2V423m0 10.2v20.37m0 10.2v20.36m0 10.2v20.37m0 10.2v20.36m0 10.2v20.37m0 10.18v20.4m0 10.18v20.37m0 10.2v20.37m0 10.18v20.38m0 10.2v20.36m0 10.2v20.37m0 10.2v20.37m0 10.2v10.18" stroke="#999" stroke-width="2" fill="none"/><path d="M560 325c0-2.76 2.24-5 5-5h30c2.76 0 5 2.24 5 5v430c0 2.76-2.24 5-5 5h-30c-2.76 0-5-2.24-5-5z" stroke="#666" stroke-width="2" fill="#f2f2f2"/><path d="M750 145c0-2.76 2.24-5 5-5h170c2.76 0 5 2.24 5 5v110c0 2.76-2.24 5-5 5H755c-2.76 0-5-2.24-5-5z" stroke="#666" stroke-width="2" fill="#a3d977"/><use xlink:href="#b" transform="matrix(1,0,0,1,750,140) translate(24.93827160493828 62.97222222222222)"/><path d="M840 260v555.2" fill="none"/><path d="M840 260v9.74m0 9.74v19.48m0 9.74v19.48m0 9.74v19.48m0 9.74v19.48m0 9.75v19.48m0 9.74v19.47m0 9.74v19.5m0 9.73v19.48m0 9.75v19.48m0 9.74v19.48m0 9.74v19.47m0 9.74v19.5m0 9.73v19.48m0 9.75v19.5m0 9.73v19.48m0 9.74v19.48m0 9.74v19.48m0 9.74v19.48m0 9.74v9.74" stroke="#999" stroke-width="2" fill="none"/><path d="M820 385c0-2.76 2.24-5 5-5h30c2.76 0 5 2.24 5 5v50c0 2.76-2.24 5-5 5h-30c-2.76 0-5-2.24-5-5z" stroke="#666" stroke-width="2" fill="#f2f2f2"/><path d="M600 390h220" stroke="#999" stroke-width="2" fill="none"/><path d="M820 390l-14.27 4.64v-9.28z" fill="#999"/><path d="M820 388.95v2.1L804.73 396v-12zm-13.27 4.3l10.03-3.25-10.03-3.26z" fill="#999"/><use xlink:href="#c" transform="matrix(1,0,0,1,658.65,364.3999999999997) translate(0 14.4)"/><path d="M32 37c0-2.76 2.24-5 5-5h838c2.76 0 5 2.24 5 5v38c0 2.76-2.24 5-5 5H37c-2.76 0-5-2.24-5-5z" fill="none"/><use xlink:href="#d" transform="matrix(1,0,0,1,32,32) translate(0 31.11111111111111)"/><use xlink:href="#e" transform="matrix(1,0,0,1,32,32) translate(184.49382716049382 31.11111111111111)"/><path d="M31.33 80H1728M180 320h380" stroke="#999" stroke-width="2" fill="none"/><path d="M560 320l-14.27 4.64v-9.28z" stroke="#999" stroke-width="2" fill="#999"/><use xlink:href="#f" transform="matrix(1,0,0,1,310.15,294.4) translate(0 14.4)"/><path d="M1240 147c0-2.76 2.24-5 5-5h150c2.76 0 5 2.24 5 5v110c0 2.76-2.24 5-5 5h-150c-2.76 0-5-2.24-5-5z" stroke="#666" stroke-width="2" fill="#ff8f80"/><use xlink:href="#g" transform="matrix(1,0,0,1,1240,142) translate(34.71604938271604 62.97222222222222)"/><path d="M1314.33 263v550.52" fill="none"/><path d="M1314.33 263v10.2m0 10.2v20.38m0 10.2v20.38m0 10.2v20.4m0 10.18v20.4m0 10.2v20.38m0 10.2v20.38m0 10.2v20.38m0 10.2v20.4m0 10.18v20.4m0 10.2v20.38m0 10.2v20.38m0 10.2v20.4m0 10.18v20.4m0 10.18v20.4m0 10.2v20.38m0 10.2v20.38m0 10.2v20.4m0 10.18v10.2" stroke="#999" stroke-width="2" fill="none"/><path d="M1315.33 263h-2v-1h2z" fill="#999"/><path d="M1294.33 585c0-2.76 2.24-5 5-5h30c2.76 0 5 2.24 5 5v50c0 2.76-2.24 5-5 5h-30c-2.76 0-5-2.24-5-5z" stroke="#666" stroke-width="2" fill="#f2f2f2"/><path d="M1083 580h211.33" stroke="#999" stroke-width="2" fill="none"/><path d="M1294.33 580l-14.26 4.64v-9.28z" stroke="#999" stroke-width="2" fill="#999"/><use xlink:href="#h" transform="matrix(1,0,0,1,1036.6333333333332,554.4000000000008) translate(0 14.4)"/><use xlink:href="#i" transform="matrix(1,0,0,1,1036.6333333333332,554.4000000000008) translate(172.55 14.4)"/><path d="M1293.64 636.98H1080" stroke="#999" stroke-width="2" fill="none"/><path d="M1294.6 636.58l1 1.4h-1.96v-2h.85z" fill="#999"/><path d="M1080 636.98l14.27-4.64v9.27z" stroke="#999" stroke-width="2" fill="#fff"/><use xlink:href="#j" transform="matrix(1,0,0,1,1090.3416666666667,611.3763470000001) translate(0 14.4)"/><path d="M820 505c0-2.76 2.24-5 5-5h30c2.76 0 5 2.24 5 5v230c0 2.76-2.24 5-5 5h-30c-2.76 0-5-2.24-5-5z" stroke="#666" stroke-width="2" fill="#f2f2f2"/><path d="M601 503.27h218.5" stroke="#999" stroke-width="2" fill="none"/><path d="M601 504.27h-1v-2h1zM819.5 503.27l-14.25 4.64v-9.27z" fill="#999"/><path d="M820.77 502.63l-.46 1.43-16.05 5.22v-12.02zm-14.52 3.9l10.03-3.26-10.03-3.26z" fill="#999"/><use xlink:href="#k" transform="matrix(1,0,0,1,691.7565985331123,477.66991959721184) translate(0 14.4)"/><path d="M819.3 736.98H601" stroke="#999" stroke-width="2" fill="none"/><path d="M820.25 736.58l1.02 1.4h-1.96v-2h.86z" fill="#999"/><path d="M615.27 741.6L601 737l14.27-4.64z" fill="#fff"/><path d="M616.27 743L600 737.7v-1.45l16.27-5.3zm-12.03-6.02l10.03 3.26v-6.52z" fill="#999"/><use xlink:href="#j" transform="matrix(1,0,0,1,646.4088170485039,711.3763470000001) translate(0 14.4)"/><path d="M559 755.08H180.33" stroke="#999" stroke-width="2" fill="none"/><path d="M560 755l.17 1.08H559v-2h1z" fill="#999"/><path d="M180.33 755.08l14.27-4.64v9.28z" stroke="#999" stroke-width="2" fill="#fff"/><g><use xlink:href="#j" transform="matrix(1,0,0,1,294.3416666666665,729.4801279999999) translate(0 14.4)"/></g><defs><path fill="#333" d="M35-132v-50h50v50H35zM35 0v-49h50V0H35" id="l"/><path fill="#333" d="M275 0h-61l-44-196L126 0H64L0-248h53L97-49l45-199h58l43 199 44-199h52" id="m"/><path fill="#333" d="M110-194c64 0 96 36 96 99 0 64-35 99-97 99-61 0-95-36-95-99 0-62 34-99 96-99zm-1 164c35 0 45-28 45-65 0-40-10-65-43-65-34 0-45 26-45 65 0 36 10 65 43 65" id="n"/><path fill="#333" d="M135-150c-39-12-60 13-60 57V0H25l-1-190h47c2 13-1 29 3 40 6-28 27-53 61-41v41" id="o"/><path fill="#333" d="M147 0L96-86 75-71V0H25v-261h50v150l67-79h53l-66 74L201 0h-54" id="p"/><path fill="#333" d="M185-48c-13 30-37 53-82 52C43 2 14-33 14-96s30-98 90-98c62 0 83 45 84 108H66c0 31 8 55 39 56 18 0 30-7 34-22zm-45-69c5-46-57-63-70-21-2 6-4 13-4 21h74" id="q"/><g id="a"><use transform="matrix(0.04938271604938272,0,0,0.04938271604938272,0,0)" xlink:href="#l"/><use transform="matrix(0.04938271604938272,0,0,0.04938271604938272,5.8765432098765435,0)" xlink:href="#m"/><use transform="matrix(0.04938271604938272,0,0,0.04938271604938272,22.271604938271604,0)" xlink:href="#n"/><use transform="matrix(0.04938271604938272,0,0,0.04938271604938272,33.08641975308642,0)" xlink:href="#o"/><use transform="matrix(0.04938271604938272,0,0,0.04938271604938272,40,0)" xlink:href="#p"/><use transform="matrix(0.04938271604938272,0,0,0.04938271604938272,49.876543209876544,0)" xlink:href="#q"/><use transform="matrix(0.04938271604938272,0,0,0.04938271604938272,59.75308641975309,0)" xlink:href="#o"/></g><path fill="#333" d="M190-63c-7 42-38 67-86 67-59 0-84-38-90-98-12-110 154-137 174-36l-49 2c-2-19-15-32-35-32-30 0-35 28-38 64-6 74 65 87 74 30" id="r"/><path fill="#333" d="M137-138c1-29-70-34-71-4 15 46 118 7 119 86 1 83-164 76-172 9l43-7c4 19 20 25 44 25 33 8 57-30 24-41C81-84 22-81 20-136c-2-80 154-74 161-7" id="s"/><path fill="#333" d="M115-3C79 11 28 4 28-45v-112H4v-33h27l15-45h31v45h36v33H77v99c-1 23 16 31 38 25v30" id="t"/><path fill="#333" d="M169-182c-1-43-94-46-97-3 18 66 151 10 154 114 3 95-165 93-204 36-6-8-10-19-12-30l50-8c3 46 112 56 116 5-17-69-150-10-154-114-4-87 153-88 188-35 5 8 8 18 10 28" id="u"/><g id="b"><use transform="matrix(0.04938271604938272,0,0,0.04938271604938272,0,0)" xlink:href="#r"/><use transform="matrix(0.04938271604938272,0,0,0.04938271604938272,9.876543209876544,0)" xlink:href="#s"/><use transform="matrix(0.04938271604938272,0,0,0.04938271604938272,19.75308641975309,0)" xlink:href="#n"/><use transform="matrix(0.04938271604938272,0,0,0.04938271604938272,30.567901234567906,0)" xlink:href="#r"/><use transform="matrix(0.04938271604938272,0,0,0.04938271604938272,40.44444444444445,0)" xlink:href="#p"/><use transform="matrix(0.04938271604938272,0,0,0.04938271604938272,50.320987654320994,0)" xlink:href="#q"/><use transform="matrix(0.04938271604938272,0,0,0.04938271604938272,60.19753086419754,0)" xlink:href="#t"/><use transform="matrix(0.04938271604938272,0,0,0.04938271604938272,66.07407407407408,0)" xlink:href="#l"/><use transform="matrix(0.04938271604938272,0,0,0.04938271604938272,71.95061728395062,0)" xlink:href="#u"/><use transform="matrix(0.04938271604938272,0,0,0.04938271604938272,83.80246913580247,0)" xlink:href="#n"/><use transform="matrix(0.04938271604938272,0,0,0.04938271604938272,94.61728395061728,0)" xlink:href="#r"/><use transform="matrix(0.04938271604938272,0,0,0.04938271604938272,104.49382716049381,0)" xlink:href="#p"/><use transform="matrix(0.04938271604938272,0,0,0.04938271604938272,114.37037037037035,0)" xlink:href="#q"/><use transform="matrix(0.04938271604938272,0,0,0.04938271604938272,124.2469135802469,0)" xlink:href="#t"/></g><path fill="#333" d="M135-194c87-1 58 113 63 194h-50c-7-57 23-157-34-157-59 0-34 97-39 157H25l-1-190h47c2 12-1 28 3 38 12-26 28-41 61-42" id="v"/><path fill="#333" d="M88-194c31-1 46 15 58 34l-1-101h50l1 261h-48c-2-10 0-23-3-31C134-8 116 4 84 4 32 4 16-41 15-95c0-56 19-97 73-99zm17 164c33 0 40-30 41-66 1-37-9-64-41-64s-38 30-39 65c0 43 13 65 39 65" id="w"/><path fill="#333" d="M67-93c0 74 22 123 53 168H70C40 30 18-18 18-93s22-123 52-168h50c-32 44-53 94-53 168" id="x"/><path fill="#333" d="M84 4C32 4 15-41 15-95c0-55 18-99 73-99 29 0 47 12 58 34l2-30h48l-1 265h-49V-32C136-9 114 4 84 4zm21-34c32 0 41-29 41-66 0-36-9-64-40-64-33 0-39 30-40 65 0 43 13 65 39 65" id="y"/><path fill="#333" d="M85 4C-2 5 27-109 22-190h50c7 57-23 150 33 157 60-5 35-97 40-157h50l1 190h-47c-2-12 1-28-3-38-12 25-28 42-61 42" id="z"/><path fill="#333" d="M123 10C108 53 80 86 19 72V37c35 8 53-11 59-39L3-190h52l48 148c12-52 28-100 44-148h51" id="A"/><path fill="#333" d="M102-93c0 74-22 123-52 168H0C30 29 54-18 53-93c0-74-22-123-53-168h50c30 45 52 94 52 168" id="B"/><g id="c"><use transform="matrix(0.05,0,0,0.05,0,0)" xlink:href="#s"/><use transform="matrix(0.05,0,0,0.05,10,0)" xlink:href="#q"/><use transform="matrix(0.05,0,0,0.05,20,0)" xlink:href="#v"/><use transform="matrix(0.05,0,0,0.05,30.950000000000003,0)" xlink:href="#w"/><use transform="matrix(0.05,0,0,0.05,41.900000000000006,0)" xlink:href="#x"/><use transform="matrix(0.05,0,0,0.05,47.85000000000001,0)" xlink:href="#y"/><use transform="matrix(0.05,0,0,0.05,58.80000000000001,0)" xlink:href="#z"/><use transform="matrix(0.05,0,0,0.05,69.75000000000001,0)" xlink:href="#q"/><use transform="matrix(0.05,0,0,0.05,79.75000000000001,0)" xlink:href="#o"/><use transform="matrix(0.05,0,0,0.05,86.75000000000001,0)" xlink:href="#A"/><use transform="matrix(0.05,0,0,0.05,96.75000000000001,0)" xlink:href="#B"/></g><path fill="#999" d="M67-125c0 53 21 87 73 88 37 1 54-22 65-47l45 17C233-25 199 4 140 4 58 4 20-42 15-125 8-235 124-281 211-232c18 10 29 29 36 50l-46 12c-8-25-30-41-62-41-52 0-71 34-72 86" id="C"/><path fill="#999" d="M140-251c80 0 125 45 125 126S219 4 139 4C58 4 15-44 15-125s44-126 125-126zm-1 214c52 0 73-35 73-88 0-50-21-86-72-86-52 0-73 35-73 86s22 88 72 88" id="D"/><path fill="#999" d="M175 0L67-191c6 58 2 128 3 191H24v-248h59L193-55c-6-58-2-129-3-193h46V0h-61" id="E"/><path fill="#999" d="M136-208V0H84v-208H4v-40h212v40h-80" id="F"/><path fill="#999" d="M240-174c0 40-23 61-54 70L253 0h-59l-57-94H76V0H24v-248c93 4 217-23 216 74zM76-134c48-2 112 12 112-38 0-48-66-32-112-35v73" id="G"/><path fill="#999" d="M24 0v-248h52v208h133V0H24" id="H"/><g id="d"><use transform="matrix(0.09876543209876544,0,0,0.09876543209876544,0,0)" xlink:href="#C"/><use transform="matrix(0.09876543209876544,0,0,0.09876543209876544,25.58024691358025,0)" xlink:href="#D"/><use transform="matrix(0.09876543209876544,0,0,0.09876543209876544,53.23456790123457,0)" xlink:href="#E"/><use transform="matrix(0.09876543209876544,0,0,0.09876543209876544,78.81481481481482,0)" xlink:href="#F"/><use transform="matrix(0.09876543209876544,0,0,0.09876543209876544,100.44444444444446,0)" xlink:href="#G"/><use transform="matrix(0.09876543209876544,0,0,0.09876543209876544,126.0246913580247,0)" xlink:href="#D"/><use transform="matrix(0.09876543209876544,0,0,0.09876543209876544,153.67901234567904,0)" xlink:href="#H"/></g><path fill="#999" d="M24 0v-248h195v40H76v63h132v40H76v65h150V0H24" id="I"/><path fill="#999" d="M140-251c80 0 125 45 125 126 0 70-33 111-92 124 6 28 34 38 68 31l-1 36C177 83 129 55 120 2 51-6 15-50 15-125c0-81 44-126 125-126zm-1 214c52 0 73-35 73-88 0-50-21-86-72-86-52 0-73 35-73 86s22 88 72 88" id="J"/><path fill="#999" d="M238-95c0 69-44 99-111 99C63 4 22-25 22-93v-155h51v151c-1 38 19 59 55 60 90 1 49-130 58-211h52v153" id="K"/><path fill="#999" d="M169-182c-1-43-94-46-97-3 18 66 151 10 154 114 3 95-165 93-204 36-6-8-10-19-12-30l50-8c3 46 112 56 116 5-17-69-150-10-154-114-4-87 153-88 188-35 5 8 8 18 10 28" id="L"/><g id="e"><use transform="matrix(0.09876543209876544,0,0,0.09876543209876544,0,0)" xlink:href="#G"/><use transform="matrix(0.09876543209876544,0,0,0.09876543209876544,25.58024691358025,0)" xlink:href="#I"/><use transform="matrix(0.09876543209876544,0,0,0.09876543209876544,49.283950617283956,0)" xlink:href="#J"/><use transform="matrix(0.09876543209876544,0,0,0.09876543209876544,76.93827160493828,0)" xlink:href="#K"/><use transform="matrix(0.09876543209876544,0,0,0.09876543209876544,102.51851851851853,0)" xlink:href="#I"/><use transform="matrix(0.09876543209876544,0,0,0.09876543209876544,126.22222222222223,0)" xlink:href="#L"/><use transform="matrix(0.09876543209876544,0,0,0.09876543209876544,149.92592592592595,0)" xlink:href="#F"/></g><path fill="#333" d="M-4 44V30h207v14H-4" id="M"/><g id="f"><use transform="matrix(0.05,0,0,0.05,0,0)" xlink:href="#s"/><use transform="matrix(0.05,0,0,0.05,10,0)" xlink:href="#q"/><use transform="matrix(0.05,0,0,0.05,20,0)" xlink:href="#v"/><use transform="matrix(0.05,0,0,0.05,30.950000000000003,0)" xlink:href="#w"/><use transform="matrix(0.05,0,0,0.05,41.900000000000006,0)" xlink:href="#M"/><use transform="matrix(0.05,0,0,0.05,51.900000000000006,0)" xlink:href="#o"/><use transform="matrix(0.05,0,0,0.05,58.900000000000006,0)" xlink:href="#q"/><use transform="matrix(0.05,0,0,0.05,68.9,0)" xlink:href="#y"/><use transform="matrix(0.05,0,0,0.05,79.85000000000001,0)" xlink:href="#x"/><use transform="matrix(0.05,0,0,0.05,85.80000000000001,0)" xlink:href="#o"/><use transform="matrix(0.05,0,0,0.05,92.80000000000001,0)" xlink:href="#q"/><use transform="matrix(0.05,0,0,0.05,102.80000000000001,0)" xlink:href="#y"/><use transform="matrix(0.05,0,0,0.05,113.75,0)" xlink:href="#B"/></g><path fill="#333" d="M67-125c0 53 21 87 73 88 37 1 54-22 65-47l45 17C233-25 199 4 140 4 58 4 20-42 15-125 8-235 124-281 211-232c18 10 29 29 36 50l-46 12c-8-25-30-41-62-41-52 0-71 34-72 86" id="N"/><path fill="#333" d="M25 0v-261h50V0H25" id="O"/><g id="g"><use transform="matrix(0.04938271604938272,0,0,0.04938271604938272,0,0)" xlink:href="#l"/><use transform="matrix(0.04938271604938272,0,0,0.04938271604938272,5.8765432098765435,0)" xlink:href="#N"/><use transform="matrix(0.04938271604938272,0,0,0.04938271604938272,18.666666666666668,0)" xlink:href="#n"/><use transform="matrix(0.04938271604938272,0,0,0.04938271604938272,29.481481481481477,0)" xlink:href="#v"/><use transform="matrix(0.04938271604938272,0,0,0.04938271604938272,40.2962962962963,0)" xlink:href="#t"/><use transform="matrix(0.04938271604938272,0,0,0.04938271604938272,46.17283950617284,0)" xlink:href="#o"/><use transform="matrix(0.04938271604938272,0,0,0.04938271604938272,53.086419753086425,0)" xlink:href="#n"/><use transform="matrix(0.04938271604938272,0,0,0.04938271604938272,63.90123456790124,0)" xlink:href="#O"/><use transform="matrix(0.04938271604938272,0,0,0.04938271604938272,68.83950617283952,0)" xlink:href="#O"/><use transform="matrix(0.04938271604938272,0,0,0.04938271604938272,73.7777777777778,0)" xlink:href="#q"/><use transform="matrix(0.04938271604938272,0,0,0.04938271604938272,83.65432098765434,0)" xlink:href="#o"/></g><path fill="#333" d="M114-157C55-157 80-60 75 0H25v-261h50l-1 109c12-26 28-41 61-42 86-1 58 113 63 194h-50c-7-57 23-157-34-157" id="P"/><path fill="#333" d="M133-34C117-15 103 5 69 4 32 3 11-16 11-54c-1-60 55-63 116-61 1-26-3-47-28-47-18 1-26 9-28 27l-52-2c7-38 36-58 82-57s74 22 75 68l1 82c-1 14 12 18 25 15v27c-30 8-71 5-69-32zm-48 3c29 0 43-24 42-57-32 0-66-3-65 30 0 17 8 27 23 27" id="Q"/><path fill="#333" d="M76-54c-1 42 2 86-19 110H24C36 42 46 24 48 0H25v-54h51" id="R"/><g id="h"><use transform="matrix(0.05,0,0,0.05,0,0)" xlink:href="#P"/><use transform="matrix(0.05,0,0,0.05,10.950000000000001,0)" xlink:href="#Q"/><use transform="matrix(0.05,0,0,0.05,20.950000000000003,0)" xlink:href="#v"/><use transform="matrix(0.05,0,0,0.05,31.900000000000006,0)" xlink:href="#w"/><use transform="matrix(0.05,0,0,0.05,42.85000000000001,0)" xlink:href="#O"/><use transform="matrix(0.05,0,0,0.05,47.85000000000001,0)" xlink:href="#q"/><use transform="matrix(0.05,0,0,0.05,57.85,0)" xlink:href="#M"/><use transform="matrix(0.05,0,0,0.05,67.85000000000001,0)" xlink:href="#r"/><use transform="matrix(0.05,0,0,0.05,77.85000000000001,0)" xlink:href="#n"/><use transform="matrix(0.05,0,0,0.05,88.80000000000001,0)" xlink:href="#v"/><use transform="matrix(0.05,0,0,0.05,99.75000000000001,0)" xlink:href="#t"/><use transform="matrix(0.05,0,0,0.05,105.7,0)" xlink:href="#o"/><use transform="matrix(0.05,0,0,0.05,112.7,0)" xlink:href="#n"/><use transform="matrix(0.05,0,0,0.05,123.65000000000003,0)" xlink:href="#O"/><use transform="matrix(0.05,0,0,0.05,128.65000000000003,0)" xlink:href="#x"/><use transform="matrix(0.05,0,0,0.05,134.60000000000002,0)" xlink:href="#o"/><use transform="matrix(0.05,0,0,0.05,141.60000000000002,0)" xlink:href="#q"/><use transform="matrix(0.05,0,0,0.05,151.60000000000002,0)" xlink:href="#y"/><use transform="matrix(0.05,0,0,0.05,162.55,0)" xlink:href="#R"/></g><path fill="#333" d="M231 0h-52l-39-155L100 0H48L-1-190h46L77-45c9-52 24-97 36-145h53l37 145 32-145h46" id="S"/><path fill="#333" d="M25-224v-37h50v37H25zM25 0v-190h50V0H25" id="T"/><g id="i"><use transform="matrix(0.05,0,0,0.05,0,0)" xlink:href="#S"/><use transform="matrix(0.05,0,0,0.05,14,0)" xlink:href="#n"/><use transform="matrix(0.05,0,0,0.05,24.950000000000003,0)" xlink:href="#o"/><use transform="matrix(0.05,0,0,0.05,31.950000000000003,0)" xlink:href="#p"/><use transform="matrix(0.05,0,0,0.05,41.95,0)" xlink:href="#q"/><use transform="matrix(0.05,0,0,0.05,51.95,0)" xlink:href="#o"/><use transform="matrix(0.05,0,0,0.05,58.95,0)" xlink:href="#M"/><use transform="matrix(0.05,0,0,0.05,68.95,0)" xlink:href="#T"/><use transform="matrix(0.05,0,0,0.05,73.95,0)" xlink:href="#w"/><use transform="matrix(0.05,0,0,0.05,84.9,0)" xlink:href="#B"/></g><path fill="#333" d="M135-194c53 0 70 44 70 98 0 56-19 98-73 100-31 1-45-17-59-34 3 33 2 69 2 105H25l-1-265h48c2 10 0 23 3 31 11-24 29-35 60-35zM114-30c33 0 39-31 40-66 0-38-9-64-40-64-56 0-55 130 0 130" id="U"/><g id="j"><use transform="matrix(0.05,0,0,0.05,0,0)" xlink:href="#r"/><use transform="matrix(0.05,0,0,0.05,10,0)" xlink:href="#n"/><use transform="matrix(0.05,0,0,0.05,20.950000000000003,0)" xlink:href="#v"/><use transform="matrix(0.05,0,0,0.05,31.900000000000006,0)" xlink:href="#t"/><use transform="matrix(0.05,0,0,0.05,37.85000000000001,0)" xlink:href="#o"/><use transform="matrix(0.05,0,0,0.05,44.85000000000001,0)" xlink:href="#n"/><use transform="matrix(0.05,0,0,0.05,55.80000000000001,0)" xlink:href="#O"/><use transform="matrix(0.05,0,0,0.05,60.80000000000001,0)" xlink:href="#M"/><use transform="matrix(0.05,0,0,0.05,70.80000000000001,0)" xlink:href="#o"/><use transform="matrix(0.05,0,0,0.05,77.80000000000001,0)" xlink:href="#q"/><use transform="matrix(0.05,0,0,0.05,87.80000000000001,0)" xlink:href="#s"/><use transform="matrix(0.05,0,0,0.05,97.80000000000001,0)" xlink:href="#U"/><use transform="matrix(0.05,0,0,0.05,108.75,0)" xlink:href="#n"/><use transform="matrix(0.05,0,0,0.05,119.7,0)" xlink:href="#v"/><use transform="matrix(0.05,0,0,0.05,130.65,0)" xlink:href="#s"/><use transform="matrix(0.05,0,0,0.05,140.65,0)" xlink:href="#q"/></g><path fill="#333" d="M128 0H69L1-190h53L99-40l48-150h52" id="V"/><g id="k"><use transform="matrix(0.05,0,0,0.05,0,0)" xlink:href="#o"/><use transform="matrix(0.05,0,0,0.05,7,0)" xlink:href="#q"/><use transform="matrix(0.05,0,0,0.05,17,0)" xlink:href="#r"/><use transform="matrix(0.05,0,0,0.05,27,0)" xlink:href="#V"/></g></defs></g></svg>