<svg xmlns="http://www.w3.org/2000/svg" xmlns:xlink="http://www.w3.org/1999/xlink" width="1760" height="1360"><g transform="translate(0 0)"><path d="M0 0h1760v1360H0z" fill="#fff"/><path d="M500 145c0-2.76 2.24-5 5-5h150c2.76 0 5 2.24 5 5v110c0 2.76-2.24 5-5 5H505c-2.76 0-5-2.24-5-5z" stroke="#666" stroke-width="2" fill="#ff8f80"/><use xlink:href="#a" transform="matrix(1,0,0,1,500,140) translate(34.71604938271604 62.97222222222222)"/><path d="M580 260v859.33" fill="none"/><path d="M580 260v9.88m0 9.87v19.76m0 9.9v19.74m0 9.88v19.75m0 9.88v19.76m0 9.88v19.76m0 9.88v19.75m0 9.88v19.75m0 9.88v19.75m0 9.88v19.77m0 9.87v19.76m0 9.88v19.75m0 9.88v19.76m0 9.88v19.76m0 9.87v19.76m0 9.88v19.76m0 9.88V744m0 9.87v19.75m0 9.88v19.76m0 9.87v19.76m0 9.87v19.75m0 9.88v19.75m0 9.88v19.76m0 9.86v19.76m0 9.88v19.75m0 9.88v19.75m0 9.88v19.75m0 9.9v19.75m0 9.87v19.76m0 9.88v9.87" stroke="#999" stroke-width="2" fill="none"/><path d="M560 325c0-2.76 2.24-5 5-5h30c2.76 0 5 2.24 5 5v290c0 2.76-2.24 5-5 5h-30c-2.76 0-5-2.24-5-5z" stroke="#666" stroke-width="2" fill="#f2f2f2"/><path d="M750 145c0-2.76 2.24-5 5-5h170c2.76 0 5 2.24 5 5v110c0 2.76-2.24 5-5 5H755c-2.76 0-5-2.24-5-5z" stroke="#666" stroke-width="2" fill="#a3d977"/><use xlink:href="#b" transform="matrix(1,0,0,1,750,140) translate(24.93827160493828 62.97222222222222)"/><path d="M840 260v858" fill="none"/><path d="M840 260v9.86m0 9.86v19.73m0 9.86v19.73m0 9.87v19.72m0 9.86v19.73m0 9.87v19.72m0 9.86v19.72m0 9.86v19.73m0 9.86v19.72m0 9.86v19.74m0 9.86v19.72m0 9.87v19.7m0 9.87v19.73m0 9.86v19.72m0 9.86v19.73m0 9.86v19.73m0 9.86v19.72m0 9.86v19.73m0 9.86v19.7m0 9.88V832m0 9.86v19.73m0 9.85v19.72m0 9.86v19.73m0 9.86v19.72m0 9.87v19.73m0 9.86v19.72m0 9.86v19.72m0 9.87v19.72m0 9.85v19.73m0 9.86v9.86" stroke="#999" stroke-width="2" fill="none"/><path d="M820 385c0-2.76 2.24-5 5-5h30c2.76 0 5 2.24 5 5v50c0 2.76-2.24 5-5 5h-30c-2.76 0-5-2.24-5-5z" stroke="#666" stroke-width="2" fill="#f2f2f2"/><path d="M600 390h220" stroke="#999" stroke-width="2" fill="none"/><path d="M820 390l-14.27 4.64v-9.28z" fill="#999"/><path d="M820 388.95v2.1L804.73 396v-12zm-13.27 4.3l10.03-3.25-10.03-3.26z" fill="#999"/><use xlink:href="#c" transform="matrix(1,0,0,1,659.65,364.3999999999997) translate(0 14.4)"/><path d="M32 37c0-2.76 2.24-5 5-5h838c2.76 0 5 2.24 5 5v38c0 2.76-2.24 5-5 5H37c-2.76 0-5-2.24-5-5z" fill="none"/><use xlink:href="#d" transform="matrix(1,0,0,1,32,32) translate(0 31.11111111111111)"/><use xlink:href="#e" transform="matrix(1,0,0,1,32,32) translate(206.0246913580247 31.11111111111111)"/><path d="M31.33 80H1728" stroke="#999" stroke-width="2" fill="none"/><path d="M820 505c0-2.76 2.24-5 5-5h30c2.76 0 5 2.24 5 5v50c0 2.76-2.24 5-5 5h-30c-2.76 0-5-2.24-5-5z" stroke="#666" stroke-width="2" fill="#f2f2f2"/><path d="M600 510h219" stroke="#999" stroke-width="2" fill="none"/><path d="M819 510l-14.27 4.64v-9.28z" fill="#999"/><path d="M820 509.27v1.46L803.73 516v-12zm-14.27 4l10.03-3.27-10.03-3.26z" fill="#999"/><use xlink:href="#f" transform="matrix(1,0,0,1,677.5999998333334,484.3999999999999) translate(0 14.4)"/><path d="M360 465c0-2.76 2.24-5 5-5h90c2.76 0 5 2.24 5 5v10c0 2.76-1.58 6.58-3.54 8.54l-2.92 2.92c-1.96 1.96-5.78 3.54-8.54 3.54h-80c-2.76 0-5-2.24-5-5z" fill="#fff"/><path d="M360 465c0-2.76 2.24-5 5-5h560c2.76 0 5 2.24 5 5v130c0 2.76-2.24 5-5 5H365c-2.76 0-5-2.24-5-5z" stroke="#666" stroke-width="2" fill="none"/><path d="M460 460v20l-10 10h-90" stroke="#666" stroke-width="2" fill="#fff"/><use xlink:href="#g" transform="matrix(1,0,0,1,368,460) translate(21 18.6)"/><use xlink:href="#h" transform="matrix(1,0,0,1,372,498) translate(12.125 18.6)"/><use xlink:href="#i" transform="matrix(1,0,0,1,372,498) translate(44.025000000000006 18.6)"/><use xlink:href="#j" transform="matrix(1,0,0,1,372,498) translate(59.025000000000006 18.6)"/><use xlink:href="#k" transform="matrix(1,0,0,1,372,498) translate(77.97500000000001 18.6)"/><path d="M180 320h380" stroke="#999" stroke-width="2" fill="none"/><path d="M560 320l-14.27 4.64v-9.28z" stroke="#999" stroke-width="2" fill="#999"/><use xlink:href="#l" transform="matrix(1,0,0,1,297.625,294.4) translate(0 14.4)"/><path d="M1120 145c0-2.76 2.24-5 5-5h150c2.76 0 5 2.24 5 5v110c0 2.76-2.24 5-5 5h-150c-2.76 0-5-2.24-5-5z" stroke="#666" stroke-width="2" fill="#99d2f2"/><use xlink:href="#m" transform="matrix(1,0,0,1,1120,140) translate(46.666666666666664 62.97222222222222)"/><path d="M1360 147c0-2.76 2.24-5 5-5h170c2.76 0 5 2.24 5 5v110c0 2.76-2.24 5-5 5h-170c-2.76 0-5-2.24-5-5z" stroke="#666" stroke-width="2" fill="#a3d977"/><use xlink:href="#b" transform="matrix(1,0,0,1,1360,141.9999999999999) translate(24.93827160493828 62.97222222222222)"/><path d="M1194.33 261v861" fill="none"/><path d="M1194.33 261v9.9m0 9.9v19.8m0 9.88v19.8m0 9.9v19.8m0 9.88v19.8m0 9.9v19.78m0 9.9v19.8m0 9.9v19.78m0 9.9v19.8m0 9.9v19.78m0 9.9v19.8m0 9.9v19.78m0 9.9v19.8m0 9.9v19.78m0 9.9v19.8m0 9.9v19.78m0 9.9v19.8m0 9.9v19.78m0 9.9v19.8m0 9.9V835m0 9.9v19.8m0 9.9v19.78m0 9.9v19.8m0 9.9v19.78m0 9.9v19.8m0 9.88v19.8m0 9.9v19.8m0 9.88v19.8m0 9.9v19.8m0 9.88v9.9" stroke="#999" stroke-width="2" fill="none"/><path d="M1195.33 261h-2v-1h2z" fill="#999"/><path d="M1174.33 725c0-2.76 2.24-5 5-5h30c2.76 0 5 2.24 5 5v310c0 2.76-2.24 5-5 5h-30c-2.76 0-5-2.24-5-5z" stroke="#666" stroke-width="2" fill="#f2f2f2"/><path d="M1450 262v856" fill="none"/><path d="M1450 262v9.84m0 9.84v19.68m0 9.84v19.67m0 9.84v19.7m0 9.83v19.68m0 9.85v19.68m0 9.83v19.68m0 9.84v19.68m0 9.84v19.68m0 9.84v19.67m0 9.83V567m0 9.85v19.68m0 9.84v19.68m0 9.84v19.66m0 9.84v19.68m0 9.84v19.68m0 9.84v19.67m0 9.85v19.68m0 9.84v19.68m0 9.84v19.67m0 9.84v19.68m0 9.84v19.68m0 9.84v19.68m0 9.84v19.68m0 9.83v19.68m0 9.84v19.67m0 9.84v19.7m0 9.83v19.67m0 9.84v19.68m0 9.84v9.84" stroke="#999" stroke-width="2" fill="none"/><path d="M1434.33 785c0-2.76 2.24-5 5-5h30c2.76 0 5 2.24 5 5v50c0 2.76-2.24 5-5 5h-30c-2.76 0-5-2.24-5-5z" stroke="#666" stroke-width="2" fill="#f2f2f2"/><path d="M1214.33 790h220" stroke="#999" stroke-width="2" fill="none"/><path d="M1434.33 790l-14.26 4.64v-9.28z" fill="#999"/><path d="M1434.33 788.95v2.1l-15.26 4.96v-12zm-13.26 4.3l10.03-3.25-10.03-3.26z" fill="#999"/><use xlink:href="#n" transform="matrix(1,0,0,1,1276.4333333333332,764.3999999999997) translate(0 14.4)"/><path d="M1434.33 905c0-2.76 2.24-5 5-5h30c2.76 0 5 2.24 5 5v50c0 2.76-2.24 5-5 5h-30c-2.76 0-5-2.24-5-5z" stroke="#666" stroke-width="2" fill="#f2f2f2"/><path d="M1214.33 910h219" stroke="#999" stroke-width="2" fill="none"/><path d="M1433.33 910l-14.26 4.64v-9.28z" fill="#999"/><path d="M1434.33 909.27v1.46l-16.26 5.28v-12zm-14.26 4l10.03-3.27-10.03-3.26z" fill="#999"/><use xlink:href="#o" transform="matrix(1,0,0,1,1299.3833331666667,884.4) translate(0 14.4)"/><path d="M974.33 865c0-2.76 2.24-5 5-5h90c2.76 0 5 2.24 5 5v10c0 2.76-1.58 6.58-3.53 8.54l-2.93 2.92c-1.95 1.96-5.78 3.54-8.54 3.54h-80c-2.76 0-5-2.24-5-5z" fill="#fff"/><path d="M974.33 865c0-2.76 2.24-5 5-5h560c2.76 0 5 2.24 5 5v130c0 2.76-2.24 5-5 5h-560c-2.76 0-5-2.24-5-5z" stroke="#666" stroke-width="2" fill="none"/><path d="M1074.33 860v20l-10 10h-90" stroke="#666" stroke-width="2" fill="#fff"/><use xlink:href="#g" transform="matrix(1,0,0,1,982.3333333333333,860) translate(21 18.6)"/><use xlink:href="#h" transform="matrix(1,0,0,1,986.3333333333333,898) translate(4.599999999999994 18.6)"/><use xlink:href="#p" transform="matrix(1,0,0,1,986.3333333333333,898) translate(36.5 18.6)"/><use xlink:href="#j" transform="matrix(1,0,0,1,986.3333333333333,898) translate(51.5 18.6)"/><use xlink:href="#q" transform="matrix(1,0,0,1,986.3333333333333,898) translate(70.45 18.6)"/><path d="M180 720h994.33" stroke="#999" stroke-width="2" fill="none"/><path d="M1174.33 720l-14.26 4.64v-9.28z" stroke="#999" stroke-width="2" fill="#999"/><use xlink:href="#r" transform="matrix(1,0,0,1,293.075,694.4000000000008) translate(0 14.4)"/><path d="M1435.76 959.9h-221.43" stroke="#999" stroke-width="2" fill="none"/><path d="M1436.38 959.04l2.38.77v1.1h-3v-2h.5z" fill="#999"/><path d="M1228.6 964.52l-14.27-4.63 14.27-4.65z" fill="#fff"/><path d="M1229.6 965.9l-15.27-4.96v-2.1l15.27-4.97zm-12.03-6l10.03 3.24v-6.5z" fill="#999"/><use xlink:href="#s" transform="matrix(1,0,0,1,1298.7582831495977,934.2856140000001) translate(0 14.4)"/><path d="M1433.64 836.98h-219.3" stroke="#999" stroke-width="2" fill="none"/><path d="M1434.6 836.58l1 1.4h-1.96v-2h.85z" fill="#999"/><path d="M1228.6 841.6l-14.27-4.62 14.27-4.64z" fill="#fff"/><path d="M1229.6 843l-15.27-4.97v-2.1l15.27-4.97zm-12.03-6.02l10.03 3.26v-6.52z" fill="#999"/><g><use xlink:href="#t" transform="matrix(1,0,0,1,1276.9928040282034,811.376347) translate(0 14.4)"/></g><path d="M1176.1 1040H180" stroke="#999" stroke-width="2" fill="none"/><path d="M1176.38 1039.04l2.73.9v1.06h-3v-2h.25z" fill="#999"/><path d="M180 1040l14.27-4.64v9.28z" stroke="#999" stroke-width="2" fill="#fff"/><g><use xlink:href="#u" transform="matrix(1,0,0,1,307.6676666666667,1014.4000000000001) translate(0 14.4)"/></g><defs><path fill="#333" d="M35-132v-50h50v50H35zM35 0v-49h50V0H35" id="v"/><path fill="#333" d="M67-125c0 53 21 87 73 88 37 1 54-22 65-47l45 17C233-25 199 4 140 4 58 4 20-42 15-125 8-235 124-281 211-232c18 10 29 29 36 50l-46 12c-8-25-30-41-62-41-52 0-71 34-72 86" id="w"/><path fill="#333" d="M110-194c64 0 96 36 96 99 0 64-35 99-97 99-61 0-95-36-95-99 0-62 34-99 96-99zm-1 164c35 0 45-28 45-65 0-40-10-65-43-65-34 0-45 26-45 65 0 36 10 65 43 65" id="x"/><path fill="#333" d="M135-194c87-1 58 113 63 194h-50c-7-57 23-157-34-157-59 0-34 97-39 157H25l-1-190h47c2 12-1 28 3 38 12-26 28-41 61-42" id="y"/><path fill="#333" d="M115-3C79 11 28 4 28-45v-112H4v-33h27l15-45h31v45h36v33H77v99c-1 23 16 31 38 25v30" id="z"/><path fill="#333" d="M135-150c-39-12-60 13-60 57V0H25l-1-190h47c2 13-1 29 3 40 6-28 27-53 61-41v41" id="A"/><path fill="#333" d="M25 0v-261h50V0H25" id="B"/><path fill="#333" d="M185-48c-13 30-37 53-82 52C43 2 14-33 14-96s30-98 90-98c62 0 83 45 84 108H66c0 31 8 55 39 56 18 0 30-7 34-22zm-45-69c5-46-57-63-70-21-2 6-4 13-4 21h74" id="C"/><g id="a"><use transform="matrix(0.04938271604938272,0,0,0.04938271604938272,0,0)" xlink:href="#v"/><use transform="matrix(0.04938271604938272,0,0,0.04938271604938272,5.8765432098765435,0)" xlink:href="#w"/><use transform="matrix(0.04938271604938272,0,0,0.04938271604938272,18.666666666666668,0)" xlink:href="#x"/><use transform="matrix(0.04938271604938272,0,0,0.04938271604938272,29.481481481481477,0)" xlink:href="#y"/><use transform="matrix(0.04938271604938272,0,0,0.04938271604938272,40.2962962962963,0)" xlink:href="#z"/><use transform="matrix(0.04938271604938272,0,0,0.04938271604938272,46.17283950617284,0)" xlink:href="#A"/><use transform="matrix(0.04938271604938272,0,0,0.04938271604938272,53.086419753086425,0)" xlink:href="#x"/><use transform="matrix(0.04938271604938272,0,0,0.04938271604938272,63.90123456790124,0)" xlink:href="#B"/><use transform="matrix(0.04938271604938272,0,0,0.04938271604938272,68.83950617283952,0)" xlink:href="#B"/><use transform="matrix(0.04938271604938272,0,0,0.04938271604938272,73.7777777777778,0)" xlink:href="#C"/><use transform="matrix(0.04938271604938272,0,0,0.04938271604938272,83.65432098765434,0)" xlink:href="#A"/></g><path fill="#333" d="M133-34C117-15 103 5 69 4 32 3 11-16 11-54c-1-60 55-63 116-61 1-26-3-47-28-47-18 1-26 9-28 27l-52-2c7-38 36-58 82-57s74 22 75 68l1 82c-1 14 12 18 25 15v27c-30 8-71 5-69-32zm-48 3c29 0 43-24 42-57-32 0-66-3-65 30 0 17 8 27 23 27" id="D"/><path fill="#333" d="M137-138c1-29-70-34-71-4 15 46 118 7 119 86 1 83-164 76-172 9l43-7c4 19 20 25 44 25 33 8 57-30 24-41C81-84 22-81 20-136c-2-80 154-74 161-7" id="E"/><path fill="#333" d="M190-63c-7 42-38 67-86 67-59 0-84-38-90-98-12-110 154-137 174-36l-49 2c-2-19-15-32-35-32-30 0-35 28-38 64-6 74 65 87 74 30" id="F"/><path fill="#333" d="M147 0L96-86 75-71V0H25v-261h50v150l67-79h53l-66 74L201 0h-54" id="G"/><path fill="#333" d="M169-182c-1-43-94-46-97-3 18 66 151 10 154 114 3 95-165 93-204 36-6-8-10-19-12-30l50-8c3 46 112 56 116 5-17-69-150-10-154-114-4-87 153-88 188-35 5 8 8 18 10 28" id="H"/><g id="b"><use transform="matrix(0.04938271604938272,0,0,0.04938271604938272,0,0)" xlink:href="#D"/><use transform="matrix(0.04938271604938272,0,0,0.04938271604938272,9.876543209876544,0)" xlink:href="#E"/><use transform="matrix(0.04938271604938272,0,0,0.04938271604938272,19.75308641975309,0)" xlink:href="#x"/><use transform="matrix(0.04938271604938272,0,0,0.04938271604938272,30.567901234567906,0)" xlink:href="#F"/><use transform="matrix(0.04938271604938272,0,0,0.04938271604938272,40.44444444444445,0)" xlink:href="#G"/><use transform="matrix(0.04938271604938272,0,0,0.04938271604938272,50.320987654320994,0)" xlink:href="#C"/><use transform="matrix(0.04938271604938272,0,0,0.04938271604938272,60.19753086419754,0)" xlink:href="#z"/><use transform="matrix(0.04938271604938272,0,0,0.04938271604938272,66.07407407407408,0)" xlink:href="#v"/><use transform="matrix(0.04938271604938272,0,0,0.04938271604938272,71.95061728395062,0)" xlink:href="#H"/><use transform="matrix(0.04938271604938272,0,0,0.04938271604938272,83.80246913580247,0)" xlink:href="#x"/><use transform="matrix(0.04938271604938272,0,0,0.04938271604938272,94.61728395061728,0)" xlink:href="#F"/><use transform="matrix(0.04938271604938272,0,0,0.04938271604938272,104.49382716049381,0)" xlink:href="#G"/><use transform="matrix(0.04938271604938272,0,0,0.04938271604938272,114.37037037037035,0)" xlink:href="#C"/><use transform="matrix(0.04938271604938272,0,0,0.04938271604938272,124.2469135802469,0)" xlink:href="#z"/></g><path fill="#333" d="M88-194c31-1 46 15 58 34l-1-101h50l1 261h-48c-2-10 0-23-3-31C134-8 116 4 84 4 32 4 16-41 15-95c0-56 19-97 73-99zm17 164c33 0 40-30 41-66 1-37-9-64-41-64s-38 30-39 65c0 43 13 65 39 65" id="I"/><path fill="#333" d="M-4 44V30h207v14H-4" id="J"/><path fill="#333" d="M25-224v-37h50v37H25zM75 22c2 45-34 59-81 51V38c22 5 31-5 31-27v-201h50V22" id="K"/><path fill="#333" d="M67-93c0 74 22 123 53 168H70C40 30 18-18 18-93s22-123 52-168h50c-32 44-53 94-53 168" id="L"/><path fill="#333" d="M102-93c0 74-22 123-52 168H0C30 29 54-18 53-93c0-74-22-123-53-168h50c30 45 52 94 52 168" id="M"/><g id="c"><use transform="matrix(0.05,0,0,0.05,0,0)" xlink:href="#E"/><use transform="matrix(0.05,0,0,0.05,10,0)" xlink:href="#C"/><use transform="matrix(0.05,0,0,0.05,20,0)" xlink:href="#y"/><use transform="matrix(0.05,0,0,0.05,30.950000000000003,0)" xlink:href="#I"/><use transform="matrix(0.05,0,0,0.05,41.900000000000006,0)" xlink:href="#J"/><use transform="matrix(0.05,0,0,0.05,51.900000000000006,0)" xlink:href="#K"/><use transform="matrix(0.05,0,0,0.05,56.900000000000006,0)" xlink:href="#E"/><use transform="matrix(0.05,0,0,0.05,66.9,0)" xlink:href="#x"/><use transform="matrix(0.05,0,0,0.05,77.85000000000001,0)" xlink:href="#y"/><use transform="matrix(0.05,0,0,0.05,88.80000000000001,0)" xlink:href="#L"/><use transform="matrix(0.05,0,0,0.05,94.75000000000001,0)" xlink:href="#M"/></g><path fill="#999" d="M230 0l2-204L168 0h-37L68-204 70 0H24v-248h70l56 185 57-185h69V0h-46" id="N"/><path fill="#999" d="M24 0v-248h52V0H24" id="O"/><path fill="#999" d="M175 0L67-191c6 58 2 128 3 191H24v-248h59L193-55c-6-58-2-129-3-193h46V0h-61" id="P"/><path fill="#999" d="M182-130c37 4 62 22 62 59C244 23 116-4 24 0v-248c84 5 203-23 205 63 0 31-19 50-47 55zM76-148c40-3 101 13 101-30 0-44-60-28-101-31v61zm0 110c48-3 116 14 116-37 0-48-69-32-116-35v72" id="Q"/><path fill="#999" d="M199 0l-22-63H83L61 0H9l90-248h61L250 0h-51zm-33-102l-36-108c-10 38-24 72-36 108h72" id="R"/><path fill="#999" d="M136-208V0H84v-208H4v-40h212v40h-80" id="S"/><path fill="#999" d="M67-125c0 53 21 87 73 88 37 1 54-22 65-47l45 17C233-25 199 4 140 4 58 4 20-42 15-125 8-235 124-281 211-232c18 10 29 29 36 50l-46 12c-8-25-30-41-62-41-52 0-71 34-72 86" id="T"/><path fill="#999" d="M186 0v-106H76V0H24v-248h52v99h110v-99h50V0h-50" id="U"/><g id="d"><use transform="matrix(0.09876543209876544,0,0,0.09876543209876544,0,0)" xlink:href="#N"/><use transform="matrix(0.09876543209876544,0,0,0.09876543209876544,29.530864197530867,0)" xlink:href="#O"/><use transform="matrix(0.09876543209876544,0,0,0.09876543209876544,39.40740740740741,0)" xlink:href="#P"/><use transform="matrix(0.09876543209876544,0,0,0.09876543209876544,64.98765432098766,0)" xlink:href="#O"/><use transform="matrix(0.09876543209876544,0,0,0.09876543209876544,74.8641975308642,0)" xlink:href="#Q"/><use transform="matrix(0.09876543209876544,0,0,0.09876543209876544,100.44444444444446,0)" xlink:href="#R"/><use transform="matrix(0.09876543209876544,0,0,0.09876543209876544,123.35802469135804,0)" xlink:href="#S"/><use transform="matrix(0.09876543209876544,0,0,0.09876543209876544,144.98765432098767,0)" xlink:href="#T"/><use transform="matrix(0.09876543209876544,0,0,0.09876543209876544,170.56790123456793,0)" xlink:href="#U"/></g><path fill="#999" d="M240-174c0 40-23 61-54 70L253 0h-59l-57-94H76V0H24v-248c93 4 217-23 216 74zM76-134c48-2 112 12 112-38 0-48-66-32-112-35v73" id="V"/><path fill="#999" d="M169-182c-1-43-94-46-97-3 18 66 151 10 154 114 3 95-165 93-204 36-6-8-10-19-12-30l50-8c3 46 112 56 116 5-17-69-150-10-154-114-4-87 153-88 188-35 5 8 8 18 10 28" id="W"/><path fill="#999" d="M76-208v77h127v40H76V0H24v-248h183v40H76" id="X"/><path fill="#999" d="M24 0v-248h195v40H76v63h132v40H76v65h150V0H24" id="Y"/><g id="e"><use transform="matrix(0.09876543209876544,0,0,0.09876543209876544,0,0)" xlink:href="#S"/><use transform="matrix(0.09876543209876544,0,0,0.09876543209876544,21.62962962962963,0)" xlink:href="#V"/><use transform="matrix(0.09876543209876544,0,0,0.09876543209876544,47.20987654320988,0)" xlink:href="#R"/><use transform="matrix(0.09876543209876544,0,0,0.09876543209876544,72.79012345679013,0)" xlink:href="#P"/><use transform="matrix(0.09876543209876544,0,0,0.09876543209876544,98.37037037037038,0)" xlink:href="#W"/><use transform="matrix(0.09876543209876544,0,0,0.09876543209876544,122.07407407407409,0)" xlink:href="#X"/><use transform="matrix(0.09876543209876544,0,0,0.09876543209876544,143.70370370370372,0)" xlink:href="#Y"/><use transform="matrix(0.09876543209876544,0,0,0.09876543209876544,167.40740740740742,0)" xlink:href="#V"/></g><g id="f"><use transform="matrix(0.05,0,0,0.05,0,0)" xlink:href="#E"/><use transform="matrix(0.05,0,0,0.05,10,0)" xlink:href="#C"/><use transform="matrix(0.05,0,0,0.05,20,0)" xlink:href="#y"/><use transform="matrix(0.05,0,0,0.05,30.950000000000003,0)" xlink:href="#I"/><use transform="matrix(0.05,0,0,0.05,41.900000000000006,0)" xlink:href="#L"/><use transform="matrix(0.05,0,0,0.05,47.85000000000001,0)" xlink:href="#D"/><use transform="matrix(0.05,0,0,0.05,57.85,0)" xlink:href="#M"/></g><path fill="#333" d="M30 0v-248h33v221h125V0H30" id="Z"/><path fill="#333" d="M100-194c62-1 85 37 85 99 1 63-27 99-86 99S16-35 15-95c0-66 28-99 85-99zM99-20c44 1 53-31 53-75 0-43-8-75-51-75s-53 32-53 75 10 74 51 75" id="aa"/><path fill="#333" d="M115-194c55 1 70 41 70 98S169 2 115 4C84 4 66-9 55-30l1 105H24l-1-265h31l2 30c10-21 28-34 59-34zm-8 174c40 0 45-34 45-75s-6-73-45-74c-42 0-51 32-51 76 0 43 10 73 51 73" id="ab"/><g id="g"><use transform="matrix(0.05,0,0,0.05,0,0)" xlink:href="#Z"/><use transform="matrix(0.05,0,0,0.05,10,0)" xlink:href="#aa"/><use transform="matrix(0.05,0,0,0.05,20,0)" xlink:href="#aa"/><use transform="matrix(0.05,0,0,0.05,30,0)" xlink:href="#ab"/></g><path fill="#333" d="M63-220v92h138v28H63V0H30v-248h175v28H63" id="ac"/><path fill="#333" d="M114-163C36-179 61-72 57 0H25l-1-190h30c1 12-1 29 2 39 6-27 23-49 58-41v29" id="ad"/><g id="h"><use transform="matrix(0.05,0,0,0.05,0,0)" xlink:href="#ac"/><use transform="matrix(0.05,0,0,0.05,10.950000000000001,0)" xlink:href="#aa"/><use transform="matrix(0.05,0,0,0.05,20.950000000000003,0)" xlink:href="#ad"/></g><path fill="#333" d="M141-36C126-15 110 5 73 4 37 3 15-17 15-53c-1-64 63-63 125-63 3-35-9-54-41-54-24 1-41 7-42 31l-33-3c5-37 33-52 76-52 45 0 72 20 72 64v82c-1 20 7 32 28 27v20c-31 9-61-2-59-35zM48-53c0 20 12 33 32 33 41-3 63-29 60-74-43 2-92-5-92 41" id="ae"/><use transform="matrix(0.05,0,0,0.05,0,0)" xlink:href="#ae" id="i"/><path fill="#333" d="M24-231v-30h32v30H24zM24 0v-190h32V0H24" id="af"/><path fill="#333" d="M117-194c89-4 53 116 60 194h-32v-121c0-31-8-49-39-48C34-167 62-67 57 0H25l-1-190h30c1 10-1 24 2 32 11-22 29-35 61-36" id="ag"/><g id="j"><use transform="matrix(0.05,0,0,0.05,0,0)" xlink:href="#af"/><use transform="matrix(0.05,0,0,0.05,3.95,0)" xlink:href="#ag"/></g><path fill="#333" d="M179-190L93 31C79 59 56 82 12 73V49c39 6 53-20 64-50L1-190h34L92-34l54-156h33" id="ah"/><path fill="#333" d="M135-143c-3-34-86-38-87 0 15 53 115 12 119 90S17 21 10-45l28-5c4 36 97 45 98 0-10-56-113-15-118-90-4-57 82-63 122-42 12 7 21 19 24 35" id="ai"/><g id="k"><use transform="matrix(0.05,0,0,0.05,0,0)" xlink:href="#ae"/><use transform="matrix(0.05,0,0,0.05,10,0)" xlink:href="#ad"/><use transform="matrix(0.05,0,0,0.05,15.949999999999998,0)" xlink:href="#ad"/><use transform="matrix(0.05,0,0,0.05,21.9,0)" xlink:href="#ae"/><use transform="matrix(0.05,0,0,0.05,31.899999999999995,0)" xlink:href="#ah"/><use transform="matrix(0.05,0,0,0.05,40.9,0)" xlink:href="#ai"/></g><path fill="#333" d="M220-157c-53 9-28 100-34 157h-49v-107c1-27-5-49-29-50C55-147 81-57 75 0H25l-1-190h47c2 12-1 28 3 38 10-53 101-56 108 0 13-22 24-43 59-42 82 1 51 116 57 194h-49v-107c-1-25-5-48-29-50" id="aj"/><path fill="#333" d="M135-194c52 0 70 43 70 98 0 56-19 99-73 100-30 1-46-15-58-35L72 0H24l1-261h50v104c11-23 29-37 60-37zM114-30c31 0 40-27 40-66 0-37-7-63-39-63s-41 28-41 65c0 36 8 64 40 64" id="ak"/><path fill="#333" d="M123 10C108 53 80 86 19 72V37c35 8 53-11 59-39L3-190h52l48 148c12-52 28-100 44-148h51" id="al"/><g id="l"><use transform="matrix(0.05,0,0,0.05,0,0)" xlink:href="#E"/><use transform="matrix(0.05,0,0,0.05,10,0)" xlink:href="#C"/><use transform="matrix(0.05,0,0,0.05,20,0)" xlink:href="#y"/><use transform="matrix(0.05,0,0,0.05,30.950000000000003,0)" xlink:href="#I"/><use transform="matrix(0.05,0,0,0.05,41.900000000000006,0)" xlink:href="#J"/><use transform="matrix(0.05,0,0,0.05,51.900000000000006,0)" xlink:href="#aj"/><use transform="matrix(0.05,0,0,0.05,67.9,0)" xlink:href="#ak"/><use transform="matrix(0.05,0,0,0.05,78.85000000000001,0)" xlink:href="#L"/><use transform="matrix(0.05,0,0,0.05,84.80000000000001,0)" xlink:href="#D"/><use transform="matrix(0.05,0,0,0.05,94.80000000000001,0)" xlink:href="#A"/><use transform="matrix(0.05,0,0,0.05,101.80000000000001,0)" xlink:href="#A"/><use transform="matrix(0.05,0,0,0.05,108.80000000000001,0)" xlink:href="#D"/><use transform="matrix(0.05,0,0,0.05,118.80000000000001,0)" xlink:href="#al"/><use transform="matrix(0.05,0,0,0.05,128.8,0)" xlink:href="#E"/><use transform="matrix(0.05,0,0,0.05,138.8,0)" xlink:href="#M"/></g><path fill="#333" d="M275 0h-61l-44-196L126 0H64L0-248h53L97-49l45-199h58l43 199 44-199h52" id="am"/><g id="m"><use transform="matrix(0.04938271604938272,0,0,0.04938271604938272,0,0)" xlink:href="#v"/><use transform="matrix(0.04938271604938272,0,0,0.04938271604938272,5.8765432098765435,0)" xlink:href="#am"/><use transform="matrix(0.04938271604938272,0,0,0.04938271604938272,22.271604938271604,0)" xlink:href="#x"/><use transform="matrix(0.04938271604938272,0,0,0.04938271604938272,33.08641975308642,0)" xlink:href="#A"/><use transform="matrix(0.04938271604938272,0,0,0.04938271604938272,40,0)" xlink:href="#G"/><use transform="matrix(0.04938271604938272,0,0,0.04938271604938272,49.876543209876544,0)" xlink:href="#C"/><use transform="matrix(0.04938271604938272,0,0,0.04938271604938272,59.75308641975309,0)" xlink:href="#A"/></g><path fill="#333" d="M128 0H69L1-190h53L99-40l48-150h52" id="an"/><g id="n"><use transform="matrix(0.05,0,0,0.05,0,0)" xlink:href="#A"/><use transform="matrix(0.05,0,0,0.05,7,0)" xlink:href="#C"/><use transform="matrix(0.05,0,0,0.05,17,0)" xlink:href="#F"/><use transform="matrix(0.05,0,0,0.05,27,0)" xlink:href="#an"/><use transform="matrix(0.05,0,0,0.05,37,0)" xlink:href="#J"/><use transform="matrix(0.05,0,0,0.05,47,0)" xlink:href="#K"/><use transform="matrix(0.05,0,0,0.05,52,0)" xlink:href="#E"/><use transform="matrix(0.05,0,0,0.05,62,0)" xlink:href="#x"/><use transform="matrix(0.05,0,0,0.05,72.95,0)" xlink:href="#y"/><use transform="matrix(0.05,0,0,0.05,83.9,0)" xlink:href="#L"/><use transform="matrix(0.05,0,0,0.05,89.85000000000001,0)" xlink:href="#M"/></g><g id="o"><use transform="matrix(0.05,0,0,0.05,0,0)" xlink:href="#A"/><use transform="matrix(0.05,0,0,0.05,7,0)" xlink:href="#C"/><use transform="matrix(0.05,0,0,0.05,17,0)" xlink:href="#F"/><use transform="matrix(0.05,0,0,0.05,27,0)" xlink:href="#an"/><use transform="matrix(0.05,0,0,0.05,37,0)" xlink:href="#L"/><use transform="matrix(0.05,0,0,0.05,42.95,0)" xlink:href="#M"/></g><path fill="#333" d="M106-169C34-169 62-67 57 0H25v-261h32l-1 103c12-21 28-36 61-36 89 0 53 116 60 194h-32v-121c2-32-8-49-39-48" id="ao"/><use transform="matrix(0.05,0,0,0.05,0,0)" xlink:href="#ao" id="p"/><path fill="#333" d="M100-194c63 0 86 42 84 106H49c0 40 14 67 53 68 26 1 43-12 49-29l28 8c-11 28-37 45-77 45C44 4 14-33 15-96c1-61 26-98 85-98zm52 81c6-60-76-77-97-28-3 7-6 17-6 28h103" id="ap"/><path fill="#333" d="M85-194c31 0 48 13 60 33l-1-100h32l1 261h-30c-2-10 0-23-3-31C134-8 116 4 85 4 32 4 16-35 15-94c0-66 23-100 70-100zm9 24c-40 0-46 34-46 75 0 40 6 74 45 74 42 0 51-32 51-76 0-42-9-74-50-73" id="aq"/><g id="q"><use transform="matrix(0.05,0,0,0.05,0,0)" xlink:href="#ao"/><use transform="matrix(0.05,0,0,0.05,10,0)" xlink:href="#ap"/><use transform="matrix(0.05,0,0,0.05,20,0)" xlink:href="#ae"/><use transform="matrix(0.05,0,0,0.05,30,0)" xlink:href="#aq"/><use transform="matrix(0.05,0,0,0.05,40,0)" xlink:href="#ap"/><use transform="matrix(0.05,0,0,0.05,50,0)" xlink:href="#ad"/><use transform="matrix(0.05,0,0,0.05,55.95,0)" xlink:href="#ai"/></g><g id="r"><use transform="matrix(0.05,0,0,0.05,0,0)" xlink:href="#A"/><use transform="matrix(0.05,0,0,0.05,7,0)" xlink:href="#C"/><use transform="matrix(0.05,0,0,0.05,17,0)" xlink:href="#F"/><use transform="matrix(0.05,0,0,0.05,27,0)" xlink:href="#an"/><use transform="matrix(0.05,0,0,0.05,37,0)" xlink:href="#J"/><use transform="matrix(0.05,0,0,0.05,47,0)" xlink:href="#aj"/><use transform="matrix(0.05,0,0,0.05,63,0)" xlink:href="#ak"/><use transform="matrix(0.05,0,0,0.05,73.95,0)" xlink:href="#L"/><use transform="matrix(0.05,0,0,0.05,79.9,0)" xlink:href="#M"/></g><g id="s"><use transform="matrix(0.05,0,0,0.05,0,0)" xlink:href="#D"/><use transform="matrix(0.05,0,0,0.05,10,0)" xlink:href="#A"/><use transform="matrix(0.05,0,0,0.05,17,0)" xlink:href="#A"/><use transform="matrix(0.05,0,0,0.05,24,0)" xlink:href="#D"/><use transform="matrix(0.05,0,0,0.05,34,0)" xlink:href="#al"/></g><path fill="#333" d="M114-157C55-157 80-60 75 0H25v-261h50l-1 109c12-26 28-41 61-42 86-1 58 113 63 194h-50c-7-57 23-157-34-157" id="ar"/><g id="t"><use transform="matrix(0.05,0,0,0.05,0,0)" xlink:href="#ar"/><use transform="matrix(0.05,0,0,0.05,10.950000000000001,0)" xlink:href="#C"/><use transform="matrix(0.05,0,0,0.05,20.950000000000003,0)" xlink:href="#D"/><use transform="matrix(0.05,0,0,0.05,30.950000000000003,0)" xlink:href="#I"/><use transform="matrix(0.05,0,0,0.05,41.900000000000006,0)" xlink:href="#C"/><use transform="matrix(0.05,0,0,0.05,51.900000000000006,0)" xlink:href="#A"/><use transform="matrix(0.05,0,0,0.05,58.900000000000006,0)" xlink:href="#E"/></g><g id="u"><use transform="matrix(0.05,0,0,0.05,0,0)" xlink:href="#D"/><use transform="matrix(0.05,0,0,0.05,10,0)" xlink:href="#A"/><use transform="matrix(0.05,0,0,0.05,17,0)" xlink:href="#A"/><use transform="matrix(0.05,0,0,0.05,24,0)" xlink:href="#D"/><use transform="matrix(0.05,0,0,0.05,34,0)" xlink:href="#al"/><use transform="matrix(0.05,0,0,0.05,44,0)" xlink:href="#E"/></g></defs></g></svg>